<svg width="78" height="16" viewBox="0 0 78 16" fill="none" xmlns="http://www.w3.org/2000/svg">
<path d="M7.48783 0.419999C8.5545 0.419999 9.5745 0.633333 10.5478 1.06C11.5345 1.48667 12.3478 2.10667 12.9878 2.92C13.6278 3.73333 13.9678 4.7 14.0078 5.82H10.2878C10.1678 5.1 9.8545 4.55333 9.34783 4.18C8.8545 3.80667 8.20783 3.62 7.40783 3.62C6.7145 3.62 6.1145 3.8 5.60783 4.16C5.1145 4.50667 4.7345 5 4.46783 5.64C4.2145 6.26667 4.08783 7.00667 4.08783 7.86C4.08783 8.71333 4.2145 9.46 4.46783 10.1C4.7345 10.7267 5.1145 11.22 5.60783 11.58C6.1145 11.9267 6.7145 12.1 7.40783 12.1C8.24783 12.1 8.9145 11.88 9.40783 11.44C9.90117 11 10.1945 10.34 10.2878 9.46H14.0078C13.9412 10.6467 13.6212 11.68 13.0478 12.56C12.4878 13.44 11.7278 14.12 10.7678 14.6C9.80783 15.0667 8.7145 15.3 7.48783 15.3C6.14117 15.3 4.92783 14.9867 3.84783 14.36C2.76783 13.7333 1.9145 12.86 1.28783 11.74C0.674499 10.6067 0.367832 9.31333 0.367832 7.86C0.367832 6.48667 0.654499 5.24 1.22783 4.12C1.8145 2.98667 2.64783 2.08667 3.72783 1.42C4.80783 0.753333 6.06117 0.419999 7.48783 0.419999ZM20.3892 4.32C22.0826 4.32 23.3092 4.61333 24.0692 5.2C24.8426 5.77333 25.2292 6.62 25.2292 7.74V12.86C25.2292 13.26 25.2626 13.6533 25.3292 14.04C25.3959 14.4133 25.4959 14.7333 25.6292 15H22.2092C22.1692 14.9467 22.1292 14.84 22.0892 14.68C22.0626 14.5067 22.0359 14.2867 22.0092 14.02C21.6092 14.4333 21.1226 14.7533 20.5492 14.98C19.9759 15.1933 19.3226 15.3 18.5892 15.3C17.8559 15.3 17.2226 15.1733 16.6892 14.92C16.1559 14.6667 15.7492 14.3067 15.4692 13.84C15.1892 13.36 15.0492 12.8 15.0492 12.16C15.0492 10.44 16.0759 9.4 18.1292 9.04C19.0226 8.88 19.8226 8.75333 20.5292 8.66C21.0492 8.59333 21.4226 8.48667 21.6492 8.34C21.8759 8.19333 21.9892 7.94667 21.9892 7.6C21.9892 7.26667 21.8292 7.00667 21.5092 6.82C21.1892 6.62 20.8026 6.52 20.3492 6.52C19.8692 6.52 19.4826 6.63333 19.1892 6.86C18.9092 7.07333 18.7292 7.39333 18.6492 7.82H15.4692C15.5226 6.66 15.9692 5.78667 16.8092 5.2C17.6626 4.61333 18.8559 4.32 20.3892 4.32ZM18.4492 12.02C18.4492 12.4067 18.5759 12.7 18.8292 12.9C19.0826 13.1 19.4359 13.2 19.8892 13.2C20.3826 13.2 20.7759 13.1133 21.0692 12.94C21.3759 12.7533 21.5959 12.4667 21.7292 12.08C21.8759 11.6933 21.9492 11.18 21.9492 10.54V10.14C21.8959 10.18 21.7826 10.2267 21.6092 10.28C21.4492 10.3333 21.2559 10.3867 21.0292 10.44L19.8492 10.7C19.3826 10.8067 19.0292 10.9667 18.7892 11.18C18.5626 11.3933 18.4492 11.6733 18.4492 12.02ZM34.0447 4.42C34.3647 4.42 34.6314 4.44667 34.8447 4.5V7.6C34.5647 7.52 34.3314 7.46667 34.1447 7.44C33.9714 7.41333 33.7714 7.4 33.5447 7.4C33.0247 7.4 32.5714 7.51333 32.1847 7.74C31.798 7.95333 31.498 8.24667 31.2847 8.62C31.0847 8.98 30.9847 9.37333 30.9847 9.8V15H27.5847V4.62H30.8847V6.44H30.9247C31.1514 5.8 31.538 5.30667 32.0847 4.96C32.6314 4.6 33.2847 4.42 34.0447 4.42ZM46.2017 15H42.9617V13.8H42.9217C42.2417 14.8 41.2884 15.3 40.0617 15.3C39.1017 15.3 38.2684 15.06 37.5617 14.58C36.8684 14.1 36.3351 13.4333 35.9617 12.58C35.6017 11.7133 35.4217 10.7133 35.4217 9.58C35.4217 8.56667 35.6017 7.66667 35.9617 6.88C36.3217 6.08 36.8284 5.45333 37.4817 5C38.1484 4.54667 38.9217 4.32 39.8017 4.32C41.0684 4.32 42.0551 4.79333 42.7617 5.74H42.8017V0.719999H46.2017V15ZM38.8217 9.7C38.8217 10.2733 38.9017 10.7867 39.0617 11.24C39.2217 11.6933 39.4551 12.0533 39.7617 12.32C40.0817 12.5733 40.4617 12.7 40.9017 12.7C41.5684 12.7 42.0684 12.4533 42.4017 11.96C42.7484 11.4533 42.9217 10.7333 42.9217 9.8C42.9217 8.92 42.7484 8.22 42.4017 7.7C42.0551 7.18 41.5484 6.92 40.8817 6.92C40.4684 6.92 40.1017 7.04 39.7817 7.28C39.4751 7.50667 39.2351 7.83333 39.0617 8.26C38.9017 8.67333 38.8217 9.15333 38.8217 9.7ZM52.0394 3.32H48.6394V0.719999H52.0394V3.32ZM52.0394 15H48.6394V4.62H52.0394V15ZM59.3974 4.32C60.4374 4.32 61.3707 4.56 62.1974 5.04C63.0374 5.50667 63.6907 6.16 64.1574 7C64.6374 7.84 64.8774 8.78 64.8774 9.82C64.8774 10.82 64.6507 11.74 64.1974 12.58C63.744 13.42 63.104 14.0867 62.2774 14.58C61.4507 15.06 60.4907 15.3 59.3974 15.3C58.344 15.3 57.404 15.0667 56.5774 14.6C55.7507 14.12 55.104 13.4667 54.6374 12.64C54.1707 11.8 53.9374 10.86 53.9374 9.82C53.9374 8.82 54.164 7.9 54.6174 7.06C55.0707 6.22 55.7107 5.55333 56.5374 5.06C57.364 4.56667 58.3174 4.32 59.3974 4.32ZM57.3374 9.82C57.3374 10.7133 57.5174 11.42 57.8774 11.94C58.2374 12.4467 58.744 12.7 59.3974 12.7C60.064 12.7 60.5774 12.44 60.9374 11.92C61.2974 11.3867 61.4774 10.6867 61.4774 9.82C61.4774 8.95333 61.2974 8.25333 60.9374 7.72C60.5774 7.18667 60.0574 6.92 59.3774 6.92C58.964 6.92 58.604 7.04 58.2974 7.28C57.9907 7.50667 57.7507 7.84 57.5774 8.28C57.4174 8.72 57.3374 9.23333 57.3374 9.82ZM73.2839 4.32C75.7639 4.32 77.0039 5.63333 77.0039 8.26V15H73.6039V8.86C73.6039 7.7 73.0373 7.12 71.9039 7.12C71.3173 7.12 70.8639 7.33333 70.5439 7.76C70.2239 8.17333 70.0639 8.72667 70.0639 9.42V15H66.6639V4.62H69.9639V6.04H70.0039C70.3106 5.53333 70.7706 5.12 71.3839 4.8C72.0106 4.48 72.6439 4.32 73.2839 4.32Z" fill="url(#paint0_linear_124_506)"/>
<defs>
<linearGradient id="paint0_linear_124_506" x1="70.0313" y1="-31.4485" x2="65.9606" y2="23.0277" gradientUnits="userSpaceOnUse">
<stop stop-color="#ED1379"/>
<stop offset="1" stop-color="#7200FF"/>
</linearGradient>
</defs>
</svg>
