<svg width="447" height="316" viewBox="0 0 447 316" fill="none" xmlns="http://www.w3.org/2000/svg">
<g clip-path="url(#clip0_124_237)">
<path opacity="0.1" d="M148.609 315.822C170.377 315.822 188.024 312.994 188.024 309.504C188.024 306.015 170.377 303.186 148.609 303.186C126.84 303.186 109.193 306.015 109.193 309.504C109.193 312.994 126.84 315.822 148.609 315.822Z" fill="#6811F5"/>
<path opacity="0.1" d="M362.866 316C390.03 316 412.05 313.171 412.05 309.682C412.05 306.192 390.03 303.364 362.866 303.364C335.702 303.364 313.682 306.192 313.682 309.682C313.682 313.171 335.702 316 362.866 316Z" fill="#6811F5"/>
<path opacity="0.1" d="M5.59822 136.535H46.652V192.38H8.60373C8.5026 192.953 8.40552 193.53 8.30035 194.108H46.652V239.146C46.5832 239.125 46.5225 239.101 46.4578 239.077C45.3737 238.649 44.2977 238.197 43.2217 237.712L42.534 237.402C41.4554 236.893 40.3767 236.355 39.298 235.787C38.9218 235.589 38.5456 235.383 38.1734 235.173C32.185 231.825 26.7448 227.583 22.0416 222.594C21.904 222.46 21.7746 222.319 21.637 222.19C20.9817 221.479 20.3386 220.761 19.7156 220.026L19.028 219.219C18.2917 218.318 17.5798 217.394 16.8881 216.457C16.787 216.32 16.6899 216.183 16.5847 216.053C13.7715 212.161 11.4357 207.945 9.62714 203.498C9.57051 203.365 9.52197 203.22 9.46938 203.094C8.91385 201.668 8.4217 200.228 7.99292 198.775C7.80684 198.165 7.62886 197.564 7.47515 196.93C7.41851 196.744 7.36997 196.562 7.32548 196.381C5.02786 187.43 4.75684 178.133 4.75684 168.9C4.75684 167.822 4.75684 166.74 4.75684 165.67C4.75684 161.936 4.80133 158.178 4.86605 154.423C4.86605 153.45 4.9065 152.481 4.92673 151.504C4.98336 149.025 5.06426 146.547 5.16944 144.068C5.19371 143.378 5.22607 142.691 5.26247 142.005C5.26247 141.609 5.2827 141.214 5.32315 140.818C5.42023 139.381 5.50114 137.956 5.59822 136.535Z" fill="#6811F5"/>
<path opacity="0.1" d="M46.6524 74.3552H24.1333C27.7939 68.637 31.7935 63.1421 36.1108 57.9C39.4561 53.7983 42.9875 49.8016 46.6524 45.9502V74.3552Z" fill="#6811F5"/>
<path opacity="0.1" d="M46.6523 76.0833V134.807H5.72803C5.72803 134.637 5.75634 134.464 5.76848 134.294C5.80488 133.83 5.84129 133.366 5.88174 132.905C5.92624 132.364 5.97478 131.819 6.02736 131.291C6.07995 130.762 6.13658 130.116 6.19726 129.53C6.25794 128.945 6.31457 128.352 6.38333 127.766C6.4521 127.181 6.51278 126.595 6.58559 126.014C6.6584 125.433 6.72312 124.843 6.79998 124.262C6.86066 123.778 6.92538 123.297 6.9901 122.813C7.08313 122.13 7.18022 121.444 7.28539 120.766C7.28539 120.665 7.31371 120.56 7.32989 120.463C8.06819 115.498 9.07419 110.576 10.3435 105.72C11.6721 100.625 13.3688 95.6326 15.4201 90.7823C17.6003 85.7084 20.1529 80.8021 23.0572 76.1034L46.6523 76.0833Z" fill="#6811F5"/>
<path opacity="0.1" d="M56.4536 136.531V192.38H144.139V136.531H56.4536ZM56.4536 194.104V242.064C56.9552 242.169 57.4528 242.27 57.9463 242.355C58.6177 242.484 59.2852 242.601 59.9688 242.702C60.0983 242.722 60.2317 242.743 60.3733 242.755C60.6403 242.799 60.9154 242.836 61.1823 242.872C61.8579 242.965 62.5294 243.041 63.2049 243.102C63.5245 243.134 63.8481 243.163 64.1717 243.187L64.9524 243.247C65.3771 243.28 65.7978 243.304 66.2144 243.316C66.4733 243.316 66.7322 243.34 66.9992 243.348C67.2014 243.348 67.4037 243.348 67.614 243.348C67.8244 243.348 68.1237 243.348 68.3786 243.348C68.7265 243.348 69.0743 243.348 69.4182 243.348H69.8834C70.2312 243.348 70.5791 243.348 70.9229 243.316H70.9472C71.1859 243.316 71.4286 243.316 71.6713 243.284C71.7386 243.288 71.8062 243.288 71.8735 243.284C72.0758 243.284 72.2781 243.284 72.4722 243.255H72.6138L73.9689 243.15C74.4139 243.11 74.8629 243.058 75.3159 243.009L76.2382 242.9C79.9904 242.375 83.7008 241.588 87.342 240.542C95.5212 238.266 103.522 235.08 111.698 232.747C122.267 229.739 133.946 228.262 144.16 231.939V194.104H56.4536ZM144.139 74.3552V0.00391666C134.539 -0.0998867 124.965 1.02073 115.65 3.33856C93.4461 8.90572 73.5239 20.9807 56.4536 36.4024V74.3512H60.8547V76.075H56.4536V134.807H144.139V76.079H78.9242V74.3552H144.139ZM256.767 49.2404C251.274 49.0466 245.813 47.3107 240.874 44.63C231.429 39.5029 223.884 31.5862 215.454 24.9048C197.939 10.9889 176.217 2.5917 153.932 0.508554V74.3552H279.108L279.42 74.0282L256.767 49.2404ZM268.17 47.2219L280.261 60.4635V43.7499C276.212 44.2505 272.664 45.4415 268.186 47.2057L268.17 47.2219ZM280.261 253.974V194.104H254.498C254.429 193.849 254.36 193.591 254.279 193.333C254.356 193.591 254.421 193.849 254.494 194.104H153.949V237.402C154.903 238.108 155.846 238.851 156.78 239.606C157.787 240.413 158.783 241.265 159.782 242.101L160.789 242.932C161.27 243.336 161.756 243.74 162.245 244.119C163.216 244.905 164.196 245.68 165.186 246.445C165.675 246.848 166.177 247.212 166.675 247.591C174.573 253.618 182.906 259.058 191.605 263.865C193.554 264.941 195.522 265.992 197.506 267.018C198.829 267.692 200.16 268.362 201.495 269.012C203.501 269.989 205.524 270.931 207.562 271.838C226.359 280.259 246.234 286.037 266.621 289.008C271.149 289.675 275.694 290.2 280.257 290.582V253.97H280.662L280.261 253.974ZM153.949 76.079V134.807H280.277V76.079H153.949ZM153.949 136.531V192.38H280.277V136.531H153.949ZM290.083 43.6773V62.3206L305.515 45.4213C300.402 44.5977 295.258 44.0097 290.083 43.6571V43.6773ZM290.083 136.551V192.38H412.953V136.531L290.083 136.551ZM412.504 258.407L412.936 194.104H290.083V291.224C297.997 291.556 305.923 291.462 313.827 290.942H313.965C317.74 290.705 321.498 290.36 325.239 289.908H325.323C345.278 287.59 364.79 282.394 383.249 274.482L412.504 258.407ZM436.645 145.727C436.184 144.641 435.702 143.563 435.213 142.497C434.299 140.479 433.332 138.517 432.337 136.555H422.75V192.38H446.988C446.976 176.571 442.967 160.422 436.657 145.707L436.645 145.727ZM422.75 194.124V249.432C429.578 242.9 435.346 235.427 439.501 226.885C444.496 216.598 446.782 205.46 446.968 194.116L422.75 194.124ZM422.75 120.277V134.811H431.439C428.81 129.808 425.914 124.949 422.762 120.257L422.75 120.277ZM339.421 54.634C338.782 54.3917 338.142 54.1455 337.499 53.9073C330.716 51.4072 323.784 49.3282 316.744 47.6821L293.129 73.5478L292.675 74.0282L292.979 74.3592H377.028C365.322 66.3175 352.702 59.6894 339.433 54.6138L339.421 54.634ZM379.491 76.0992H291.806L290.083 77.6737V134.807H305.187H305.211H412.969V107.132C403.221 95.3666 391.97 84.9266 379.504 76.079L379.491 76.0992Z" fill="#6811F5"/>
<path opacity="0.1" d="M46.6523 105.703V134.807H5.72803C5.72803 134.637 5.75634 134.464 5.76848 134.294C5.80488 133.83 5.84129 133.366 5.88174 132.905C5.92624 132.364 5.97478 131.819 6.02736 131.291C6.07995 130.762 6.13658 130.116 6.19726 129.53C6.25794 128.945 6.31457 128.351 6.38333 127.766C6.4521 127.181 6.51278 126.595 6.58559 126.014C6.6584 125.433 6.72312 124.843 6.79998 124.262C6.86066 123.777 6.92538 123.297 6.9901 122.813C7.08313 122.13 7.18022 121.444 7.28539 120.766C7.28539 120.665 7.31371 120.56 7.32989 120.463C8.06819 115.498 9.07419 110.576 10.3435 105.72L46.6523 105.703Z" fill="#6811F5"/>
<path opacity="0.1" d="M5.59822 136.535H46.652V192.38H8.60373C8.5026 192.953 8.40552 193.53 8.30035 194.108H46.652V239.146C46.5832 239.125 46.5225 239.101 46.4578 239.077C45.3737 238.649 44.2977 238.197 43.2217 237.712L42.534 237.402C41.4554 236.893 40.3767 236.355 39.298 235.787C38.9218 235.589 38.5456 235.383 38.1734 235.173C32.185 231.825 26.7448 227.583 22.0416 222.594C21.904 222.46 21.7746 222.319 21.637 222.19C20.9817 221.479 20.3386 220.761 19.7156 220.026L19.028 219.219C18.2917 218.318 17.5798 217.394 16.8881 216.457C16.787 216.32 16.6899 216.183 16.5847 216.053C13.7715 212.161 11.4357 207.945 9.62714 203.498C9.57051 203.365 9.52197 203.22 9.46938 203.094C8.91385 201.668 8.4217 200.228 7.99292 198.775C7.80684 198.165 7.62886 197.564 7.47515 196.93C7.41851 196.744 7.36997 196.562 7.32548 196.381C5.02786 187.43 4.75684 178.133 4.75684 168.9C4.75684 167.822 4.75684 166.74 4.75684 165.67C4.75684 161.936 4.80133 158.178 4.86605 154.423C4.86605 153.45 4.9065 152.481 4.92673 151.504C4.98336 149.025 5.06426 146.547 5.16944 144.068C5.19371 143.378 5.22607 142.691 5.26247 142.005C5.26247 141.609 5.2827 141.214 5.32315 140.818C5.42023 139.381 5.50114 137.956 5.59822 136.535Z" fill="#6811F5"/>
<path opacity="0.1" d="M87.3218 84.4885V134.807H56.4536V84.4885H60.8547V67.4519H78.9201V84.4885H87.3218Z" fill="#6811F5"/>
<path opacity="0.1" d="M87.3216 136.531H56.4575V192.376H87.3216V136.531Z" fill="#6811F5"/>
<path opacity="0.1" d="M56.4536 194.108H87.3218V240.535C83.6806 241.579 79.9701 242.365 76.218 242.888L75.2957 243.001C74.8426 243.054 74.3936 243.098 73.9487 243.143C73.5037 243.187 73.0426 243.219 72.5936 243.247H72.452C72.2578 243.247 72.0475 243.272 71.8574 243.276H71.6511C71.4084 243.276 71.1657 243.3 70.9229 243.308C70.5791 243.328 70.2353 243.332 69.8833 243.336C69.7337 243.336 69.5921 243.336 69.4424 243.336C69.0946 243.336 68.7507 243.336 68.4028 243.336H67.6383C67.432 243.336 67.2338 243.336 67.0194 243.336L66.2387 243.308C65.8342 243.308 65.3973 243.264 64.9766 243.235L64.2 243.179L63.2332 243.09C62.5536 243.029 61.8781 242.953 61.2107 242.86L60.4016 242.747L59.9971 242.69C59.3216 242.585 58.6541 242.472 57.9746 242.343C57.477 242.258 56.9835 242.153 56.4819 242.052L56.4536 194.108Z" fill="#6811F5"/>
<path opacity="0.1" d="M280.277 78.5459H254.825V134.803H280.277V78.5459Z" fill="#6811F5"/>
<path opacity="0.1" d="M280.281 136.531V192.38H153.949V168.291H221.239V182.501H254.826V136.531H280.281Z" fill="#6811F5"/>
<path opacity="0.1" d="M280.682 253.986H280.277V290.623C275.72 290.238 271.176 289.714 266.645 289.052C246.248 286.072 226.364 280.281 207.562 271.846C202.134 269.408 196.816 266.746 191.609 263.861C182.91 259.051 174.577 253.612 166.675 247.587C164.69 246.069 162.731 244.516 160.797 242.928C159.458 241.826 158.127 240.696 156.78 239.598C155.846 238.843 154.903 238.1 153.949 237.39V194.108H254.49C254.421 193.849 254.352 193.591 254.279 193.337C254.356 193.591 254.429 193.849 254.498 194.108H280.277V253.962C280.415 253.966 280.548 253.978 280.682 253.986Z" fill="#6811F5"/>
<path opacity="0.1" d="M346.657 74.3554H330.072V69.2122H337.507V53.8914C338.152 54.1255 338.794 54.3664 339.433 54.614V69.2122H346.657V74.3554Z" fill="#6811F5"/>
<path opacity="0.1" d="M386.615 134.807H305.195C305.195 134.807 305.195 134.807 305.223 134.827L305.187 134.807H290.083V78.5499H294.362V120.132H313.92V95.5057H330.076V76.0833H346.661V95.5219H362.817V120.148H386.615V134.807Z" fill="#6811F5"/>
<path opacity="0.1" d="M290.083 136.531V192.38H386.615V136.531H290.083ZM412.819 258.12L412.952 213.914H386.615V194.132H290.083V291.224C297.997 291.556 305.923 291.462 313.827 290.942H313.965C317.74 290.705 321.498 290.36 325.239 289.908H325.323C345.278 287.59 364.79 282.394 383.249 274.483" fill="#6811F5"/>
<path opacity="0.1" d="M424.465 194.108H446.984C446.785 205.448 444.504 216.586 439.512 226.873C435.358 235.42 429.586 242.892 422.766 249.42V213.894H424.465V194.108Z" fill="#6811F5"/>
<path opacity="0.1" d="M446.996 192.38H424.465V145.707H436.657C442.967 160.422 446.976 176.571 446.996 192.38Z" fill="#6811F5"/>
<path opacity="0.1" d="M280.281 94.1855H266.645V111.824H280.281V94.1855Z" fill="#6811F5"/>
<path opacity="0.1" d="M280.281 130.746H266.645V134.807H280.281V130.746Z" fill="#6811F5"/>
<path opacity="0.1" d="M280.281 136.531H266.645V148.38H280.281V136.531Z" fill="#6811F5"/>
<path opacity="0.1" d="M280.281 167.305H266.645V184.943H280.281V167.305Z" fill="#6811F5"/>
<path opacity="0.1" d="M280.281 203.865H266.645V221.504H280.281V203.865Z" fill="#6811F5"/>
<path opacity="0.1" d="M280.277 253.962C280.415 253.962 280.548 253.962 280.682 253.986H280.277V258.084H266.645V240.426H280.277V253.962Z" fill="#6811F5"/>
<path opacity="0.1" d="M280.277 276.977V290.603C275.72 290.218 271.176 289.694 266.645 289.032V276.977H280.277Z" fill="#6811F5"/>
<path opacity="0.1" d="M212.388 191.084H153.949V192.38H212.388V191.084Z" fill="#6811F5"/>
<path opacity="0.1" d="M212.388 194.104H153.949V199.069H212.388V194.104Z" fill="#6811F5"/>
<path opacity="0.1" d="M212.388 215.347H153.949V223.332H212.388V215.347Z" fill="#6811F5"/>
<path opacity="0.1" d="M212.384 239.61V247.595H166.674C164.689 246.083 162.729 244.53 160.793 242.937C159.454 241.835 158.127 240.704 156.776 239.61H212.384Z" fill="#6811F5"/>
<path opacity="0.1" d="M212.384 263.869V271.846H207.558C202.135 269.405 196.818 266.742 191.608 263.857L212.384 263.869Z" fill="#6811F5"/>
<path opacity="0.1" d="M325.335 141.944H313.831V153.426H325.335V141.944Z" fill="#6811F5"/>
<path opacity="0.1" d="M76.246 88.4487H64.7417V99.9303H76.246V88.4487Z" fill="#6811F5"/>
<path opacity="0.1" d="M76.246 115.118H64.7417V126.599H76.246V115.118Z" fill="#6811F5"/>
<path opacity="0.1" d="M76.246 141.787H64.7417V153.269H76.246V141.787Z" fill="#6811F5"/>
<path opacity="0.1" d="M76.246 168.452H64.7417V179.934H76.246V168.452Z" fill="#6811F5"/>
<path opacity="0.1" d="M76.246 195.121H64.7417V206.603H76.246V195.121Z" fill="#6811F5"/>
<path opacity="0.1" d="M76.246 221.79H64.7417V233.272H76.246V221.79Z" fill="#6811F5"/>
<path opacity="0.1" d="M369.253 141.944H357.749V153.426H369.253V141.944Z" fill="#6811F5"/>
<path opacity="0.1" d="M325.335 170.265H313.831V181.746H325.335V170.265Z" fill="#6811F5"/>
<path opacity="0.1" d="M369.253 170.265H357.749V181.746H369.253V170.265Z" fill="#6811F5"/>
<path opacity="0.1" d="M325.335 198.581H313.831V210.063H325.335V198.581Z" fill="#6811F5"/>
<path opacity="0.1" d="M369.253 198.581H357.749V210.063H369.253V198.581Z" fill="#6811F5"/>
<path opacity="0.1" d="M325.335 226.901H313.831V238.383H325.335V226.901Z" fill="#6811F5"/>
<path opacity="0.1" d="M369.253 226.901H357.749V238.383H369.253V226.901Z" fill="#6811F5"/>
<path opacity="0.1" d="M325.335 255.221H313.831V266.703H325.335V255.221Z" fill="#6811F5"/>
<path opacity="0.1" d="M369.253 255.221H357.749V266.703H369.253V255.221Z" fill="#6811F5"/>
<path opacity="0.1" d="M313.831 290.942V283.538H325.331V289.888L313.831 290.942Z" fill="#6811F5"/>
<path opacity="0.1" d="M7.28125 120.455V127.023H46.6522V120.455H7.28125ZM11.205 126.612H7.99319V120.859H11.2293L11.205 126.612ZM15.1247 126.612H11.8886V120.859H15.1247V126.612ZM19.0363 126.612H15.8002V120.859H19.0363V126.612ZM22.956 126.612H19.724V120.859H22.9601L22.956 126.612ZM26.8717 126.612H23.6356V120.859H26.8717V126.612ZM30.7914 126.612H27.5553V120.859H30.7914V126.612ZM34.7111 126.612H31.475V120.859H34.7111V126.612ZM38.6267 126.612H35.3907V120.859H38.6267V126.612ZM42.5424 126.612H39.3063V120.859H42.5424V126.612ZM46.4581 126.612H43.222V120.859H46.4581V126.612Z" fill="#6811F5"/>
<path opacity="0.1" d="M7.28125 139.567V146.135H46.6522V139.567H7.28125ZM11.205 145.719H7.99319V139.982H11.2293L11.205 145.719ZM15.1247 145.719H11.8886V139.982H15.1247V145.719ZM19.0363 145.719H15.8002V139.982H19.0363V145.719ZM22.956 145.719H19.724V139.982H22.9601L22.956 145.719ZM26.8717 145.719H23.6356V139.982H26.8717V145.719ZM30.7914 145.719H27.5553V139.982H30.7914V145.719ZM34.7111 145.719H31.475V139.982H34.7111V145.719ZM38.6267 145.719H35.3907V139.982H38.6267V145.719ZM42.5424 145.719H39.3063V139.982H42.5424V145.719ZM46.4581 145.719H43.222V139.982H46.4581V145.719Z" fill="#6811F5"/>
<path opacity="0.1" d="M7.28125 158.686V165.267H46.6522V158.686H7.28125ZM11.205 164.839H7.99319V159.098H11.2293L11.205 164.839ZM15.1247 164.839H11.8886V159.098H15.1247V164.839ZM19.0363 164.839H15.8002V159.098H19.0363V164.839ZM22.956 164.839H19.724V159.098H22.9601L22.956 164.839ZM26.8717 164.839H23.6356V159.098H26.8717V164.839ZM30.7914 164.839H27.5553V159.098H30.7914V164.839ZM34.7111 164.839H31.475V159.098H34.7111V164.839ZM38.6267 164.839H35.3907V159.098H38.6267V164.839ZM42.5424 164.839H39.3063V159.098H42.5424V164.839ZM46.4581 164.839H43.222V159.098H46.4581V164.839Z" fill="#6811F5"/>
<path opacity="0.1" d="M7.28125 177.806V184.366H46.6522V177.806H7.28125ZM11.205 183.958H7.99319V178.214H11.2293L11.205 183.958ZM15.1247 183.958H11.8886V178.214H15.1247V183.958ZM19.0363 183.958H15.8002V178.214H19.0363V183.958ZM22.956 183.958H19.724V178.214H22.9601L22.956 183.958ZM26.8717 183.958H23.6356V178.214H26.8717V183.958ZM30.7914 183.958H27.5553V178.214H30.7914V183.958ZM34.7111 183.958H31.475V178.214H34.7111V183.958ZM38.6267 183.958H35.3907V178.214H38.6267V183.958ZM42.5424 183.958H39.3063V178.214H42.5424V183.958ZM46.4581 183.958H43.222V178.214H46.4581V183.958Z" fill="#6811F5"/>
<path opacity="0.1" d="M7.45117 196.922C7.60893 197.539 7.78691 198.157 7.97299 198.767V197.333H11.2091V203.074H9.47777C9.53035 203.207 9.58294 203.353 9.63553 203.478H46.6523V196.922H7.45117ZM15.1369 203.074H11.9008V197.333H15.1369V203.074ZM19.0485 203.074H15.8124V197.333H19.0485V203.074ZM22.9682 203.074H19.724V197.333H22.9601L22.9682 203.074ZM26.8838 203.074H23.6478V197.333H26.8838V203.074ZM30.8036 203.074H27.5675V197.333H30.8036V203.074ZM34.7233 203.074H31.4872V197.333H34.7233V203.074ZM38.6389 203.074H35.4028V197.333H38.6389V203.074ZM42.5546 203.074H39.3185V197.333H42.5546V203.074ZM46.4702 203.074H43.2341V197.333H46.4702V203.074Z" fill="#6811F5"/>
<path opacity="0.1" d="M16.5928 216.042C16.6939 216.171 16.791 216.316 16.8962 216.445H19.036V219.203C19.2666 219.477 19.4931 219.752 19.7277 220.01V216.429H22.9638V222.19H21.6532C21.7826 222.323 21.908 222.465 22.0577 222.594H46.6641V216.042H16.5928ZM26.8714 222.19H23.6353V216.453H26.8714V222.19ZM30.7911 222.19H27.555V216.453H30.7911V222.19ZM34.7108 222.19H31.4747V216.453H34.7108V222.19ZM38.6264 222.19H35.3904V216.453H38.6264V222.19ZM42.5421 222.19H39.306V216.453H42.5421V222.19ZM46.4578 222.19H43.2217V216.453H46.4578V222.19Z" fill="#6811F5"/>
<path opacity="0.1" d="M38.1899 235.157C38.558 235.367 38.9342 235.561 39.3145 235.771V235.569H42.5506V237.385L43.2382 237.704V235.569H46.4743V239.061C46.5364 239.092 46.6014 239.116 46.6685 239.134V235.157H38.1899Z" fill="#6811F5"/>
<path opacity="0.1" d="M305.195 134.807H305.219H305.195ZM280.277 253.958H280.681H280.277ZM254.279 193.333C254.356 193.591 254.421 193.85 254.493 194.104C254.429 193.85 254.36 193.591 254.279 193.333ZM305.195 134.795H305.219H305.195ZM60.8706 74.3433V76.0671H78.9401V74.3433H60.8706ZM280.277 253.958H280.681H280.277ZM254.279 193.333C254.356 193.591 254.421 193.85 254.493 194.104C254.429 193.85 254.36 193.591 254.279 193.333ZM305.195 134.795H305.219H305.195ZM280.277 253.946H280.681H280.277ZM254.279 193.333C254.356 193.591 254.421 193.85 254.493 194.104C254.429 193.85 254.36 193.591 254.279 193.333Z" fill="#6811F5"/>
<path d="M186.722 153.276C186.722 153.276 185.128 153.054 185.128 150.737C185.128 148.42 183.987 144.092 183.987 144.092C183.987 144.072 183 136.555 181.637 135.36C180.274 134.165 178.522 127.148 178.522 127.148C178.522 127.148 178.223 123.341 177.612 122.522C177.001 121.702 176.176 119.696 174.959 116.834C173.741 113.971 168.665 111.989 168.665 111.989C168.665 111.989 159.486 106.676 156.885 104.944C156.649 104.802 156.428 104.636 156.226 104.448C155.773 103.854 153.799 103.842 153.799 103.842C153.592 102.542 153.394 101.049 153.33 99.6961C153.33 99.5508 153.33 99.4054 153.309 99.2601C156.21 97.5491 158.394 94.8514 159.462 91.6623C159.51 91.5089 159.551 91.3474 159.595 91.194C159.769 91.1368 159.929 91.0441 160.065 90.9218C160.201 90.7994 160.309 90.6501 160.384 90.4834C160.619 89.9627 160.623 89.3531 160.914 88.8686C161.254 88.2953 161.901 87.9885 162.411 87.5565C163.697 86.4665 164.029 84.6296 163.968 82.9583C163.928 81.6059 163.709 80.2413 163.794 78.897L163.818 78.5578C163.843 78.356 163.871 78.1541 163.907 77.9604C164.106 76.9592 164.538 76.0145 164.781 75.0213C165.024 74.0282 165.048 72.9099 164.482 72.0541C163.653 70.7985 161.925 70.5482 160.408 70.419C158.689 70.2737 157.152 70.4635 156.052 69.0384C155.537 68.2935 154.958 67.5951 154.321 66.9512C154.094 66.7412 151.894 65.4009 151.894 65.3121C149.746 64.3194 147.311 64.133 145.037 64.7873C143.896 65.1183 142.82 65.6593 141.663 65.9298C139.168 66.5192 136.296 65.8813 134.176 67.3064C132.995 68.1139 132.287 69.3977 131.624 70.6492C131.084 71.68 130.537 72.7094 129.981 73.7375C129.087 75.4291 128.177 77.1489 127.801 79.0221C127.722 79.4297 127.673 79.8426 127.655 80.2575V80.2777C127.655 80.427 127.655 80.5764 127.655 80.7258V80.9155C127.655 81.0568 127.655 81.1941 127.68 81.3192C127.704 81.4444 127.7 81.4847 127.712 81.5695C127.724 81.6543 127.744 81.844 127.769 81.9732C127.793 82.1024 127.841 82.3285 127.89 82.5061C127.91 82.5828 127.938 82.6555 127.963 82.7282C128.003 82.8654 128.052 82.9986 128.104 83.1319C128.133 83.2005 128.161 83.2732 128.193 83.3418C128.254 83.4831 128.327 83.6204 128.4 83.7455C128.432 83.802 128.456 83.8545 128.489 83.907C128.601 84.0947 128.726 84.2754 128.861 84.448C129.726 85.5259 131.001 86.2122 131.943 87.2215C131.943 87.2618 131.943 87.3022 131.943 87.3385C131.943 87.4516 131.943 87.5606 131.943 87.6736C131.993 89.9245 132.593 92.1291 133.692 94.0957C134.79 96.0622 136.353 97.7312 138.245 98.9573C138.245 99.1107 138.266 99.2682 138.274 99.4216C138.353 100.62 138.338 101.823 138.229 103.019C138.064 102.825 137.858 102.671 137.626 102.567C137.393 102.464 137.141 102.414 136.886 102.421C136.712 102.413 136.538 102.428 136.368 102.466L136.332 102.437V102.474C135.442 102.692 134.346 103.616 133.298 106.244C133.298 106.244 130.111 109.829 127.684 109.68C125.257 109.53 119.112 113.41 119.112 113.41C119.112 113.41 113.117 117.294 111.831 121.25C111.112 123.494 110.25 125.689 109.25 127.823L101.839 143.063L100.472 155.154C100.472 155.154 101.229 160.531 101.079 161.351C100.929 162.17 104.19 169.562 104.19 169.562C104.19 169.562 114.962 188.452 119.363 189.421L119.678 189.199C119.867 189.297 120.066 189.371 120.273 189.421L121.179 188.783C121.233 189.494 121.21 190.208 121.11 190.914C120.504 192.78 121.337 204.951 122.397 207.337C123.456 209.723 123.08 241.007 123.08 241.007L122.931 243.768C122.931 243.768 122.931 243.857 122.967 244.01L122.931 244.664L123.04 244.721C123.153 245.597 123.116 246.486 122.931 247.349C122.55 248.56 122.397 251.984 122.397 251.984C122.397 251.984 119.367 271.313 120.803 275.197C122.239 279.081 123.46 283.336 123.46 283.336C123.46 283.336 124.977 288.18 123.533 289.008C122.089 289.835 117.983 291.224 118.829 293.243C119.597 295.108 122.514 300.106 122.947 300.837L122.91 301.22L122.316 307.651C122.412 308.5 122.643 309.329 122.999 310.106C123.651 311.507 124.917 312.96 127.324 312.803C127.728 312.774 128.197 312.726 128.65 312.665C133.055 312.076 138.48 310.114 138.48 310.114C138.198 309.935 137.94 309.722 137.711 309.48C137.495 309.271 137.323 309.02 137.207 308.742C137.091 308.464 137.033 308.166 137.036 307.865C137.101 306.694 134.904 301.115 134.358 299.743C134.273 299.545 134.229 299.432 134.229 299.432C134.229 299.432 139.236 294.208 138.403 289.577C138.403 289.577 132.861 286.347 134.686 284.575C136.51 282.803 139.77 277.712 139.77 277.712C139.77 277.712 139.92 258.677 139.77 255.835C139.614 253.862 139.708 251.878 140.049 249.929C140.11 249.634 140.183 249.347 140.26 249.065C142.783 249.441 145.33 249.634 147.881 249.642C148.811 249.642 149.758 249.642 150.712 249.586C150.712 249.855 150.724 250.145 150.749 250.458C150.959 255.173 151.351 263.441 151.671 266.513C152.124 270.918 154.628 282.787 154.628 282.787C154.628 282.787 149.851 285.847 155.461 293.388C155.461 293.388 155.461 296.121 155.089 296.517C154.692 297.81 154.372 299.126 154.13 300.457C153.896 301.878 153.799 303.315 154.179 304.062C155.089 305.847 160.55 305.701 160.55 305.701L160.684 305.677C161.714 305.571 162.756 305.67 163.749 305.968C164.741 306.267 165.664 306.76 166.464 307.417C168.539 309.08 176.415 308.35 180.678 307.821C182.349 307.611 183.466 307.417 183.466 307.417C183.52 307.228 183.539 307.031 183.522 306.836C183.478 305.79 182.657 303.497 177.09 301.45C177.09 301.45 171.856 297.938 171.929 294.878H171.82H171.213C171.654 294.854 171.937 294.878 171.937 294.878C171.937 294.878 169.886 287.409 170.723 286.804C171.561 286.198 169.053 277.922 169.053 277.922C169.053 277.922 167.617 264.034 167.54 263.061C167.543 262.227 167.67 261.397 167.916 260.599L167.54 252.985C167.54 252.985 167.467 250.454 167.54 249.63C167.528 248.915 167.47 248.202 167.366 247.494C167.33 247.212 167.293 246.917 167.253 246.626C169.215 246.13 170.489 245.67 170.489 245.67L170.262 219.166C171.929 215.936 172.236 208.851 172.228 203.825C172.228 200.595 172.083 198.205 172.083 198.205L174.36 194.495C174.36 194.495 174.886 190.054 174.053 189.082C173.684 188.641 173.85 188.185 174.154 187.81C174.311 187.685 174.478 187.572 174.651 187.471C174.651 187.471 174.627 187.434 174.599 187.382C174.758 187.249 174.927 187.129 175.104 187.023C175.104 187.023 174.295 185.771 175.019 185.242C175.699 185.702 176.306 186.05 176.767 186.332C176.734 186.627 176.702 186.797 176.702 186.797L176.896 186.393C177.341 186.643 177.612 186.797 177.612 186.797C177.612 186.797 181.18 179.703 181.103 178.658C181.026 177.612 183.53 173.208 183.53 173.208C183.53 173.208 183.834 170.894 185.201 169.926C186.568 168.957 186.261 161.936 186.261 161.936C186.261 161.936 186.641 158.278 187.551 156.785C188.461 155.291 186.722 153.276 186.722 153.276ZM118.457 150.164L118.525 151.855C118.121 151.205 117.83 150.737 117.83 150.737L118.457 150.164Z" fill="url(#paint0_linear_124_237)"/>
<path d="M177.807 183.732L176.933 187.447C176.933 187.447 169.935 183.882 168.673 179.352C167.411 174.823 170.784 173.103 170.784 173.103L177.305 175.86L177.807 183.732Z" fill="white"/>
<path opacity="0.1" d="M177.807 183.732L176.933 187.447C176.933 187.447 169.935 183.882 168.673 179.352C167.411 174.823 170.784 173.103 170.784 173.103L177.305 175.86L177.807 183.732Z" fill="black"/>
<path d="M138.533 310.138C138.533 310.138 132.061 312.512 127.611 312.811C125.249 312.968 124.007 311.523 123.368 310.13C123.018 309.356 122.793 308.532 122.7 307.688L123.279 301.289L123.586 297.881L133.039 295.431L134.378 299.516L134.504 299.827C135.042 301.192 137.198 306.743 137.133 307.902C137.13 308.198 137.188 308.492 137.302 308.766C137.416 309.04 137.584 309.289 137.797 309.496C138.014 309.741 138.261 309.956 138.533 310.138Z" fill="white"/>
<path d="M182.741 306.884C182.758 307.078 182.738 307.274 182.685 307.462C182.685 307.462 168.842 309.767 166.011 307.462C165.212 306.788 164.282 306.289 163.279 305.995C162.276 305.702 161.222 305.621 160.186 305.758C160.186 305.758 154.83 305.903 153.936 304.143C153.564 303.404 153.661 301.971 153.892 300.558C154.127 299.234 154.44 297.925 154.83 296.638L155.045 296.469L156.319 295.447L171.237 295.007H171.35C171.278 298.051 176.415 301.543 176.415 301.543C181.872 303.562 182.677 305.843 182.741 306.884Z" fill="white"/>
<path opacity="0.1" d="M182.742 306.884C182.756 307.079 182.735 307.274 182.681 307.462C182.681 307.462 168.843 309.767 166.011 307.462C165.213 306.789 164.283 306.29 163.281 305.996C162.279 305.703 161.226 305.622 160.19 305.758C160.19 305.758 154.83 305.903 153.941 304.143C153.568 303.4 153.661 301.971 153.892 300.558C155.955 300.764 159.211 301.277 160.49 302.5C162.423 304.361 165.7 306.218 167.71 306.363C169.284 306.464 178.697 306.763 182.742 306.884Z" fill="black"/>
<path opacity="0.1" d="M138.533 310.138C138.533 310.138 132.06 312.512 127.611 312.811C125.249 312.968 124.007 311.523 123.372 310.126C125.018 310.679 127.303 311.26 128.505 310.727C129.929 310.098 134.977 309.69 137.809 309.516C138.024 309.752 138.267 309.961 138.533 310.138Z" fill="black"/>
<path d="M148.136 118.84C142.796 116.769 135.928 109.926 137.643 106.729C138.024 105.922 138.25 105.051 138.31 104.161C138.42 102.953 138.437 101.738 138.359 100.528C138.238 98.5452 137.999 96.5715 137.643 94.6174C137.643 94.6174 154.313 94.9929 153.342 97.4434C153.059 98.162 153.014 99.4095 153.091 100.806C153.168 102.203 153.37 103.782 153.58 105.118C153.872 106.951 154.163 108.348 154.163 108.348C154.163 108.348 153.143 109.773 152.545 109.849C151.946 109.926 155.797 121.791 148.136 118.84Z" fill="#CF6F80"/>
<path opacity="0.1" d="M134.492 299.827L134.366 299.965C129.383 293.949 123.356 301.446 123.356 301.446L123.267 301.289L123.574 297.881L133.027 295.431L134.366 299.516L134.492 299.827Z" fill="black"/>
<path opacity="0.1" d="M171.355 295.431C171.355 295.431 167.714 295.354 165.772 297.066C163.831 298.778 154.446 297.437 154.851 297.066C154.97 296.882 155.043 296.671 155.061 296.452L156.335 295.431L171.253 294.991C171.31 295.261 171.355 295.431 171.355 295.431Z" fill="black"/>
<path d="M140.693 248.193C140.421 248.862 140.215 249.555 140.078 250.264C139.74 252.204 139.647 254.179 139.799 256.142C139.948 258.968 139.799 277.906 139.799 277.906C139.799 277.906 136.599 282.956 134.815 284.737C133.031 286.517 138.456 289.714 138.456 289.714C139.265 294.317 134.362 299.516 134.362 299.516C129.378 293.501 123.351 301.002 123.351 301.002C123.351 301.002 120.075 295.35 119.258 293.332C118.44 291.313 122.457 289.916 123.869 289.097C125.281 288.277 123.8 283.445 123.8 283.445C123.8 283.445 122.607 279.21 121.191 275.346C119.775 271.483 122.752 252.25 122.752 252.25C122.752 252.25 122.906 248.835 123.274 247.644C123.46 246.784 123.497 245.9 123.384 245.028C123.359 244.733 123.331 244.487 123.311 244.321C123.29 244.156 123.274 244.079 123.274 244.079L123.331 243.982L125.353 240.219C125.353 240.219 141.663 245.823 140.693 248.193Z" fill="#6811F5"/>
<path d="M171.355 294.987C171.355 294.987 167.714 294.91 165.772 296.602C163.831 298.293 154.446 296.973 154.851 296.602C155.255 296.23 155.223 293.481 155.223 293.481C149.717 285.98 154.414 282.936 154.414 282.936C154.414 282.936 151.954 271.128 151.509 266.747C151.198 263.687 150.814 255.464 150.607 250.769C150.518 248.75 150.466 247.361 150.466 247.361L154.964 246.457L155.542 246.34L166.391 244.168C166.391 244.168 166.691 246.187 166.893 247.838C166.994 248.543 167.051 249.253 167.063 249.965C166.99 250.773 167.063 253.3 167.063 253.3L167.431 260.878C167.19 261.672 167.066 262.498 167.063 263.328C167.136 264.293 168.547 278.108 168.547 278.108C168.547 278.108 171.003 286.352 170.165 286.945C169.328 287.539 171.355 294.987 171.355 294.987Z" fill="#6811F5"/>
<path opacity="0.1" d="M153.342 97.4434C153.058 98.162 153.014 99.4095 153.091 100.806C150.858 102.148 148.291 102.834 145.685 102.786C143.079 102.737 140.54 101.956 138.359 100.532C138.238 98.5478 137.999 96.5728 137.643 94.6174C137.643 94.6174 154.312 94.9848 153.342 97.4434Z" fill="black"/>
<path d="M159.786 88.5216C159.789 89.9763 159.559 91.4223 159.106 92.8049C158.093 95.9029 156.014 98.5435 153.239 100.26C150.463 101.977 147.169 102.659 143.938 102.186C140.707 101.713 137.748 100.115 135.584 97.6754C133.419 95.2356 132.188 92.1105 132.109 88.8526C132.109 88.7396 132.109 88.6346 132.109 88.5216C132.078 86.6878 132.412 84.8661 133.094 83.1627C133.775 81.4594 134.79 79.9085 136.078 78.6006C137.366 77.2927 138.903 76.2539 140.597 75.5448C142.292 74.8357 144.112 74.4705 145.949 74.4705C147.787 74.4705 149.606 74.8357 151.301 75.5448C152.996 76.2539 154.532 77.2927 155.821 78.6006C157.109 79.9085 158.123 81.4594 158.805 83.1627C159.486 84.8661 159.821 86.6878 159.79 88.5216H159.786Z" fill="#CF6F80"/>
<path opacity="0.1" d="M148.136 118.84C142.796 116.769 135.928 109.926 137.643 106.729C138.024 105.922 138.25 105.051 138.31 104.161L145.62 110.156L150.142 113.858L153.58 105.122C153.872 106.955 154.163 108.352 154.163 108.352C154.163 108.352 153.143 109.777 152.545 109.853C151.946 109.93 155.797 121.791 148.136 118.84Z" fill="black"/>
<path d="M167.039 145.336L160.934 247.676L152.974 248.197L132.36 188.856L135.742 118.404L136.454 103.519L145.62 111.032L150.146 114.734L153.686 105.744L160.267 111.468L167.039 145.336Z" fill="#6811F5"/>
<path opacity="0.1" d="M140.692 248.193C140.421 248.862 140.215 249.556 140.078 250.264C134.285 249.371 128.659 247.617 123.388 245.06L123.278 245.004L123.315 244.354L123.335 244.015L125.358 240.252C125.358 240.252 141.663 245.823 140.692 248.193Z" fill="black"/>
<path opacity="0.1" d="M155.057 250.28C153.576 250.531 152.082 250.701 150.583 250.789C150.494 248.77 150.441 247.381 150.441 247.381L154.94 246.477L155.057 250.28Z" fill="black"/>
<path opacity="0.1" d="M166.869 247.858C163.993 248.605 159.551 249.444 155.575 248.919L155.518 246.36L166.367 244.188C166.367 244.188 166.666 246.186 166.869 247.858Z" fill="black"/>
<path opacity="0.1" d="M155.502 249.388C138.917 252.214 123.728 244.111 123.728 244.111L123.873 241.366C123.873 241.366 124.25 210.244 123.206 207.858C122.162 205.472 121.349 193.373 121.94 191.516C122.53 189.659 119.784 161.811 119.784 161.811L119.339 150.507L103.053 143.923L110.334 128.775C111.318 126.652 112.164 124.467 112.867 122.235C114.133 118.303 120.01 114.44 120.01 114.44C120.01 114.44 126.037 110.58 128.42 110.726C130.803 110.871 133.925 107.31 133.925 107.31C136.231 101.444 138.318 104.101 138.318 104.101C138.318 104.379 138.318 104.101 138.205 104.969C137.396 111.408 151.287 131.755 151.485 132.114L152.808 164.274L154.147 204.972L155.502 249.388Z" fill="black"/>
<path d="M155.057 249.388C138.472 252.214 123.278 244.111 123.278 244.111L123.428 241.366C123.428 241.366 123.804 210.244 122.756 207.858C121.709 205.472 120.9 193.373 121.494 191.516C122.089 189.659 119.338 161.811 119.338 161.811L118.889 150.507L102.596 143.898L109.877 128.751C110.858 126.626 111.704 124.442 112.409 122.211C113.671 118.279 119.553 114.415 119.553 114.415C119.553 114.415 125.58 110.556 127.958 110.701C130.337 110.847 133.464 107.286 133.464 107.286C135.774 101.42 138.318 104.076 138.318 104.076C138.318 104.355 138.075 104.48 138.205 104.944C139.985 111.19 150.842 131.73 151.04 132.09L152.379 164.249L153.718 204.947L155.057 249.388Z" fill="white"/>
<path opacity="0.1" d="M150.587 133.006C148.803 132.264 139.354 121.497 139.354 121.497V119.046C139.01 118.239 136.967 118.731 135.309 119.296L136.021 104.412L136.83 105.082C138.601 111.323 150.381 132.647 150.587 133.006Z" fill="black"/>
<path d="M151.036 132.114C149.248 131.371 139.799 120.604 139.799 120.604V118.154C139.455 117.346 137.412 117.839 135.753 118.404L136.469 103.519L137.278 104.189C139.054 110.431 150.838 131.759 151.036 132.114Z" fill="white"/>
<path opacity="0.1" d="M123.728 185.812C123.95 185.812 135.26 184.625 135.26 184.625C135.26 184.625 142.108 198.064 141.659 201.334C141.21 204.604 140.397 207.499 137.643 206.986C134.888 206.474 122.817 207.39 122.817 207.39L123.728 185.812Z" fill="black"/>
<path d="M123.278 184.919C123.501 184.919 134.811 183.732 134.811 183.732C134.811 183.732 141.655 197.176 141.21 200.442C140.765 203.708 139.944 206.607 137.193 206.094C134.443 205.581 122.368 206.498 122.368 206.498L123.278 184.919Z" fill="white"/>
<path d="M131.802 178.609C131.802 178.609 142.181 184.177 142.404 185.876C142.626 187.576 137.121 185.133 135.932 184.839C135.149 184.65 134.352 184.526 133.549 184.467L125.617 184.681L131.802 178.609Z" fill="#CF6F80"/>
<path opacity="0.1" d="M147.691 133.701C148.294 133.701 148.783 133.213 148.783 132.611C148.783 132.009 148.294 131.521 147.691 131.521C147.088 131.521 146.599 132.009 146.599 132.611C146.599 133.213 147.088 133.701 147.691 133.701Z" fill="black"/>
<path d="M147.691 133.257C148.294 133.257 148.783 132.769 148.783 132.167C148.783 131.565 148.294 131.077 147.691 131.077C147.088 131.077 146.599 131.565 146.599 132.167C146.599 132.769 147.088 133.257 147.691 133.257Z" fill="#3F3D56"/>
<path opacity="0.1" d="M149.701 180.886C150.304 180.886 150.793 180.398 150.793 179.796C150.793 179.194 150.304 178.706 149.701 178.706C149.098 178.706 148.609 179.194 148.609 179.796C148.609 180.398 149.098 180.886 149.701 180.886Z" fill="black"/>
<path d="M149.701 180.438C150.304 180.438 150.793 179.95 150.793 179.348C150.793 178.746 150.304 178.258 149.701 178.258C149.098 178.258 148.609 178.746 148.609 179.348C148.609 179.95 149.098 180.438 149.701 180.438Z" fill="#3F3D56"/>
<path opacity="0.1" d="M148.779 157.294C149.382 157.294 149.871 156.806 149.871 156.204C149.871 155.602 149.382 155.114 148.779 155.114C148.175 155.114 147.687 155.602 147.687 156.204C147.687 156.806 148.175 157.294 148.779 157.294Z" fill="black"/>
<path d="M148.779 156.849C149.382 156.849 149.871 156.361 149.871 155.759C149.871 155.157 149.382 154.669 148.779 154.669C148.175 154.669 147.687 155.157 147.687 155.759C147.687 156.361 148.175 156.849 148.779 156.849Z" fill="#3F3D56"/>
<path d="M173.955 184.241C173.955 184.241 174.7 185.355 173.955 185.876C173.211 186.397 174.028 187.657 174.028 187.657C174.028 187.657 172.172 188.743 172.989 189.72C173.806 190.697 173.288 195.109 173.288 195.109L171.055 198.799C171.055 198.799 171.189 201.177 171.197 204.39C171.197 209.404 170.901 216.453 169.267 219.667L169.494 246.033C169.494 246.033 161.674 248.883 155.129 248.015L154.159 205.706C154.159 205.706 155.574 181.714 156.096 177.112C156.402 174.722 156.526 172.313 156.468 169.905C156.468 169.905 156.246 162.703 155.498 159.361C155.498 159.361 154.689 144.879 154.608 140.871C154.571 138.953 154.672 133.358 154.786 128.037C154.911 122.219 155.053 116.733 155.053 116.733L153.576 105.074C153.576 105.074 155.053 104.924 155.498 105.518C155.697 105.704 155.914 105.87 156.145 106.014C158.693 107.734 167.698 113.023 167.698 113.023C167.698 113.023 172.681 115.001 173.874 117.835C175.068 120.669 175.897 122.679 176.476 123.487C177.054 124.294 177.369 128.089 177.369 128.089C177.369 128.089 179.085 135.073 180.424 136.256C181.762 137.439 182.741 144.964 182.741 144.964L170.909 154.25C170.909 154.25 169.87 169.696 169.647 170.293C169.425 170.89 173.955 184.241 173.955 184.241Z" fill="white"/>
<path d="M174.404 184.241C174.404 184.241 175.145 185.355 174.404 185.876C173.664 186.397 174.473 187.657 174.473 187.657C174.473 187.657 172.629 188.755 173.438 189.732C174.247 190.709 173.737 195.121 173.737 195.121L171.504 198.811C171.504 198.811 171.638 201.189 171.65 204.402C171.65 209.416 171.354 216.465 169.72 219.679L169.943 246.045C169.943 246.045 162.111 248.895 155.574 248.027L154.608 205.718C154.608 205.718 156.023 181.726 156.545 177.124C156.851 174.734 156.974 172.325 156.913 169.917C156.913 169.917 156.691 162.715 155.947 159.373C155.947 159.373 155.138 144.891 155.053 140.883C155.016 138.965 155.121 133.37 155.231 128.049C155.356 122.231 155.498 116.745 155.498 116.745L153.548 104.928C153.548 104.928 155.498 104.928 155.947 105.53C156.144 105.718 156.361 105.884 156.594 106.026C159.142 107.746 168.151 113.035 168.151 113.035C168.151 113.035 173.13 115.013 174.324 117.847C175.517 120.681 176.346 122.691 176.929 123.499C177.511 124.306 177.818 128.101 177.818 128.101C177.818 128.101 179.534 135.085 180.873 136.268C182.211 137.451 183.178 144.96 183.178 144.96L171.346 154.245C171.346 154.245 170.307 169.691 170.08 170.289C169.854 170.886 174.404 184.241 174.404 184.241Z" fill="white"/>
<path opacity="0.1" d="M160.235 120.172L161.303 123.281L155.68 128.933C155.805 123.12 155.947 117.629 155.947 117.629L153.997 105.812C153.997 105.812 155.947 105.812 156.396 106.414C156.593 106.602 156.81 106.767 157.043 106.907L161.824 120.673L160.235 120.172Z" fill="black"/>
<path d="M159.785 119.28L160.857 122.389L155.235 128.041C155.36 122.223 155.502 116.737 155.502 116.737L153.548 104.92C153.548 104.92 155.502 104.92 155.947 105.522C156.145 105.709 156.362 105.875 156.594 106.018L161.379 119.781L159.785 119.28Z" fill="white"/>
<path opacity="0.1" d="M159.786 88.5216C159.789 89.9763 159.559 91.4223 159.106 92.8049C159.03 92.8168 158.952 92.8133 158.876 92.7946C158.801 92.7759 158.731 92.7423 158.669 92.6959C158.564 89.0625 156.772 85.6512 154.567 82.7485C153.948 81.8721 153.198 81.096 152.343 80.4474C151.478 79.7991 150.402 79.4954 149.325 79.5955C148.111 79.7611 147.039 80.5846 145.814 80.6896C144.196 80.8228 142.748 79.7045 141.142 79.648C140.489 79.6542 139.845 79.7993 139.253 80.0736C138.66 80.3479 138.134 80.745 137.707 81.2386C136.864 82.2347 136.237 83.3951 135.867 84.6459C135.231 86.5428 134.884 88.5243 134.839 90.524C134.819 91.6544 134.71 93.0714 133.658 93.4832C133.737 92.6518 133.643 91.8132 133.38 91.0202C133.118 90.2273 132.693 89.4974 132.133 88.8768L132.109 88.8526C132.109 88.7396 132.109 88.6346 132.109 88.5216C132.078 86.6878 132.412 84.8661 133.094 83.1627C133.775 81.4594 134.79 79.9085 136.078 78.6006C137.366 77.2927 138.903 76.2539 140.597 75.5448C142.292 74.8357 144.112 74.4705 145.949 74.4705C147.787 74.4705 149.606 74.8357 151.301 75.5448C152.996 76.2539 154.532 77.2927 155.821 78.6006C157.109 79.9085 158.123 81.4594 158.805 83.1627C159.486 84.8661 159.821 86.6878 159.79 88.5216H159.786Z" fill="black"/>
<path d="M151.679 66.588C149.577 65.6012 147.186 65.4146 144.956 66.0632C143.836 66.3942 142.78 66.9312 141.643 67.2017C139.216 67.787 136.385 67.1532 134.302 68.5702C133.145 69.3777 132.449 70.6534 131.802 71.8928L130.184 74.969C129.302 76.6525 128.412 78.3642 128.044 80.2173C127.676 82.0703 127.898 84.1454 129.075 85.6351C129.933 86.721 131.199 87.4033 132.129 88.4247C132.687 89.046 133.109 89.7754 133.371 90.5674C133.633 91.3593 133.728 92.1967 133.65 93.027C134.706 92.6233 134.807 91.2022 134.831 90.0718C134.877 88.0721 135.223 86.0906 135.859 84.1938C136.228 82.9426 136.855 81.782 137.699 80.7865C138.126 80.2933 138.653 79.8964 139.245 79.6222C139.837 79.3479 140.481 79.2026 141.134 79.1959C142.752 79.2524 144.204 80.3666 145.806 80.2334C147.019 80.1325 148.095 79.3049 149.317 79.1434C150.394 79.0417 151.47 79.3455 152.335 79.9952C153.19 80.6429 153.939 81.4192 154.555 82.2964C156.764 85.1991 158.556 88.6023 158.661 92.2438C159.118 92.5789 159.778 92.1429 160.004 91.6261C160.231 91.1094 160.239 90.5038 160.526 90.0113C160.858 89.442 161.493 89.1393 161.99 88.7113C163.252 87.6253 163.568 85.7965 163.519 84.1373C163.471 82.4781 163.147 80.7946 163.463 79.1636C163.653 78.1624 164.082 77.2258 164.316 76.2367C164.551 75.2476 164.579 74.1374 164.025 73.2856C163.216 72.0341 161.513 71.7878 160.028 71.6707C158.342 71.5254 156.833 71.7111 155.757 70.2941C155.252 69.5546 154.683 68.8603 154.058 68.219C153.843 68.0091 151.679 66.6768 151.679 66.588Z" fill="#512E4E"/>
<path opacity="0.1" d="M107.713 151.722L103.486 143.923L102.147 155.957C102.147 155.957 102.891 161.302 102.742 162.122C102.592 162.941 105.792 170.289 105.792 170.289C105.792 170.289 116.361 189.078 120.678 190.046L135.26 179.647L131.393 174.746C131.393 174.746 130.054 174.225 129.718 174.746C129.718 174.746 122.538 162.417 121.794 161.524C121.05 160.632 121.195 158.852 121.195 158.852C121.195 158.852 120.079 157.665 120.451 156.551C120.823 155.436 118.295 151.573 118.295 151.573L120.601 149.421L107.713 151.722Z" fill="black"/>
<path d="M103.708 143.034L102.592 143.923L101.253 155.957C101.253 155.957 101.997 161.302 101.848 162.122C101.698 162.941 104.902 170.289 104.902 170.289C104.902 170.289 115.467 189.078 119.784 190.046L134.37 179.647L130.499 174.746C130.499 174.746 129.16 174.225 128.824 174.746C128.824 174.746 121.644 162.417 120.9 161.524C120.156 160.632 120.305 158.852 120.305 158.852C120.305 158.852 119.189 157.665 119.561 156.551C119.933 155.436 117.401 151.573 117.401 151.573L119.707 149.421L103.708 143.034Z" fill="white"/>
<path opacity="0.1" d="M172.989 190.18C173.798 191.161 173.288 195.565 173.288 195.565L171.055 199.255C171.055 199.255 171.189 201.637 171.197 204.847L167.443 206.017C167.104 206.123 166.744 206.146 166.394 206.085C166.044 206.024 165.714 205.88 165.431 205.666C165.148 205.451 164.92 205.172 164.767 204.852C164.614 204.532 164.54 204.18 164.551 203.825L165.198 182.99L173.956 186.332C173.211 186.849 174.029 188.117 174.029 188.117C174.029 188.117 172.172 189.199 172.989 190.18Z" fill="black"/>
<path d="M173.438 189.732C174.247 190.713 173.737 195.121 173.737 195.121L171.504 198.811C171.504 198.811 171.638 201.189 171.65 204.403L167.827 205.593C167.495 205.697 167.143 205.719 166.8 205.659C166.458 205.598 166.134 205.457 165.857 205.247C165.58 205.037 165.358 204.764 165.208 204.451C165.058 204.137 164.985 203.793 164.996 203.446L165.647 182.546L174.409 185.888C173.66 186.405 174.477 187.669 174.477 187.669C174.477 187.669 172.629 188.755 173.438 189.732Z" fill="white"/>
<path d="M176.338 179.8C176.338 179.8 175.744 183.591 174.255 183.813C172.766 184.035 172.099 189.946 170.614 189.736C169.13 189.526 170.113 184.241 170.165 183.216C170.218 182.19 168.547 177.943 169.797 176.978C171.047 176.014 175.003 176.978 175.003 176.978L176.338 179.8Z" fill="#CF6F80"/>
<path opacity="0.1" d="M179.505 150.608L182.313 144.956C182.313 144.956 183.429 149.264 183.429 151.565C183.429 153.866 184.991 154.092 184.991 154.092C184.991 154.092 186.702 156.111 185.8 157.58C184.898 159.05 184.533 162.707 184.533 162.707C184.533 162.707 184.829 169.687 183.49 170.652C182.151 171.617 181.872 173.922 181.872 173.922C181.872 173.922 179.412 178.302 179.489 179.344C179.566 180.386 176.067 187.438 176.067 187.438C176.067 187.438 177.778 178.674 167.807 174.887C167.807 174.887 167.73 171.912 168.474 171.096C169.219 170.281 170.38 169.909 169.652 165.787C168.923 161.666 169.441 156.74 169.441 155.751C169.441 154.762 171.674 148.593 171.674 148.593L179.505 150.608Z" fill="black"/>
<path d="M180.719 144.149L183.17 144.956C183.17 144.956 184.291 149.264 184.291 151.565C184.291 153.866 185.852 154.092 185.852 154.092C185.852 154.092 187.563 156.111 186.661 157.58C185.759 159.05 185.399 162.707 185.399 162.707C185.399 162.707 185.694 169.687 184.355 170.652C183.016 171.617 182.717 173.922 182.717 173.922C182.717 173.922 180.262 178.303 180.339 179.344C180.415 180.386 176.912 187.439 176.912 187.439C176.912 187.439 178.628 178.674 168.652 174.887C168.652 174.887 168.58 171.912 169.324 171.096C170.068 170.281 171.229 169.909 170.501 165.788C169.773 161.666 170.291 156.74 170.291 155.751C170.291 154.762 172.523 148.594 172.523 148.594L180.719 144.149Z" fill="white"/>
<path opacity="0.1" d="M126.575 290.643C126.575 290.643 130.483 288.193 133.047 289.973C135.612 291.753 126.575 290.643 126.575 290.643Z" fill="black"/>
<path opacity="0.1" d="M156.938 283.065C156.938 283.065 160.397 282.621 163.301 285.742C166.205 288.862 156.938 283.065 156.938 283.065Z" fill="black"/>
<g opacity="0.1">
<path opacity="0.1" d="M161.998 87.8272C161.501 88.2552 160.862 88.562 160.53 89.1312C160.247 89.6197 160.239 90.2212 160.012 90.7461C159.786 91.2709 159.126 91.6988 158.669 91.3678C158.564 87.7344 156.768 84.323 154.564 81.4163C153.947 80.5391 153.198 79.7628 152.343 79.1152C151.477 78.4655 150.399 78.1618 149.321 78.2633C148.108 78.4289 147.04 79.2524 145.814 79.3534C144.196 79.4906 142.744 78.3723 141.138 78.3158C140.485 78.3223 139.842 78.4679 139.25 78.743C138.658 79.018 138.132 79.4161 137.708 79.9105C136.863 80.9045 136.236 82.0637 135.867 83.3138C135.231 85.2107 134.885 87.1921 134.84 89.1918C134.815 90.3181 134.71 91.723 133.667 92.1429C133.691 92.4412 133.691 92.7409 133.667 93.0391C134.718 92.6354 134.823 91.2144 134.848 90.084C134.893 88.0843 135.239 86.1028 135.875 84.206C136.244 82.9547 136.871 81.7942 137.716 80.7986C138.141 80.3056 138.668 79.9087 139.259 79.6344C139.85 79.3601 140.494 79.2148 141.146 79.208C142.764 79.2645 144.22 80.3788 145.822 80.2456C147.036 80.1446 148.112 79.317 149.329 79.1555C150.408 79.054 151.485 79.3577 152.351 80.0074C153.206 80.655 153.955 81.4313 154.572 82.3085C156.776 85.2112 158.572 88.6145 158.677 92.2559C159.134 92.591 159.794 92.155 160.02 91.6383C160.247 91.1215 160.255 90.5159 160.538 90.0234C160.87 89.4542 161.509 89.1514 162.006 88.7235C163.269 87.6375 163.584 85.8087 163.536 84.1494C163.536 84.097 163.536 84.0445 163.536 83.996C163.459 85.4332 163.074 86.8987 161.998 87.8272Z" fill="black"/>
<path opacity="0.1" d="M132.137 87.5405C131.207 86.5191 129.937 85.8368 129.083 84.7549C128.365 83.7971 127.954 82.6441 127.906 81.4485C127.779 82.9426 128.197 84.4323 129.083 85.643C129.937 86.729 131.207 87.4113 132.137 88.4327C133.031 89.4318 133.567 90.6981 133.662 92.0338C133.724 91.2209 133.621 90.404 133.359 89.6319C133.097 88.8598 132.682 88.1484 132.137 87.5405Z" fill="black"/>
<path opacity="0.1" d="M164.324 75.3526C164.086 76.3417 163.661 77.2823 163.467 78.2795C163.352 78.9458 163.31 79.6226 163.341 80.298C163.355 79.9133 163.397 79.5301 163.467 79.1515C163.661 78.1503 164.086 77.2137 164.324 76.2246C164.463 75.679 164.508 75.1139 164.458 74.5532C164.433 74.8225 164.388 75.0897 164.324 75.3526Z" fill="black"/>
</g>
<path opacity="0.1" d="M53.6909 307.058C75.4594 307.058 93.1064 304.229 93.1064 300.74C93.1064 297.25 75.4594 294.422 53.6909 294.422C31.9223 294.422 14.2754 297.25 14.2754 300.74C14.2754 304.229 31.9223 307.058 53.6909 307.058Z" fill="#6811F5"/>
<path d="M54.9606 179.708H52.4243V236.699H54.9606V179.708Z" fill="#535461"/>
<path d="M70.8987 236.526L70.7409 239.093L70.5144 242.727L70.4214 244.237L70.1989 247.87L70.1018 249.38L69.8753 253.013L67.3188 294.22C67.2077 295.993 66.4238 297.657 65.1267 298.873C63.8297 300.09 62.1169 300.767 60.3369 300.768H47.0447C45.2652 300.767 43.5529 300.09 42.2565 298.873C40.9601 297.657 40.1771 295.993 40.0669 294.22L37.5226 252.985L37.296 249.352L37.203 247.842L36.9765 244.208L36.8834 242.698L36.6569 239.065L36.4951 236.497C36.467 236.003 36.5404 235.509 36.7107 235.044C36.881 234.579 37.1447 234.154 37.4856 233.794C37.8265 233.435 38.2374 233.148 38.6932 232.953C39.1489 232.758 39.6397 232.657 40.1357 232.658H67.3228C67.8169 232.662 68.3049 232.768 68.7566 232.967C69.2084 233.167 69.6143 233.457 69.9494 233.82C70.2845 234.182 70.5416 234.609 70.7048 235.075C70.8681 235.54 70.9341 236.034 70.8987 236.526Z" fill="#3F3D56"/>
<path d="M70.7408 239.093L70.5143 242.715H36.8671L36.6406 239.093H70.7408Z" fill="#9D9CB5"/>
<path d="M70.421 244.224L70.1986 247.85H37.1865L36.96 244.224H70.421Z" fill="#9D9CB5"/>
<path d="M70.1017 249.364L69.8793 252.985H37.5063L37.2798 249.364H70.1017Z" fill="#9D9CB5"/>
<path d="M32.7696 201.068C47.5383 211.734 53.703 228.415 53.703 228.415C53.703 228.415 35.9046 227.805 21.1319 217.139C6.35915 206.473 0.206543 189.796 0.206543 189.796C0.206543 189.796 17.9969 190.402 32.7696 201.068Z" fill="#6811F5"/>
<path d="M0.194336 189.796C0.194336 189.796 18.6724 200.03 24.5984 208.504C30.5245 216.978 53.703 228.415 53.703 228.415" stroke="#535461" stroke-width="2" stroke-miterlimit="10"/>
<path d="M42.3038 179.582C50.3414 185.384 53.7029 194.463 53.7029 194.463C53.7029 194.463 44.0148 194.132 35.9732 188.331C27.9315 182.53 24.5781 173.446 24.5781 173.446C24.5781 173.446 34.2621 173.777 42.3038 179.582Z" fill="#6811F5"/>
<path d="M24.5781 173.446C24.5781 173.446 34.6343 179.017 37.8582 183.628C41.0821 188.238 53.7029 194.463 53.7029 194.463" stroke="#535461" stroke-width="2" stroke-miterlimit="10"/>
<path d="M65.3728 194.003C56.1379 204.132 54.1841 217.37 54.1841 217.37C54.1841 217.37 67.2053 214.18 76.4321 204.047C85.659 193.914 87.6209 180.68 87.6209 180.68C87.6209 180.68 74.6078 183.874 65.3728 194.003Z" fill="#6811F5"/>
<path d="M87.629 180.685C87.629 180.685 75.5989 191.068 72.5408 198.222C69.4827 205.375 54.1841 217.37 54.1841 217.37" stroke="#535461" stroke-width="2" stroke-miterlimit="10"/>
<path d="M404.377 190.438C404.377 190.438 397.698 157.277 400.255 153.152C400.255 153.152 400.348 149.316 400.194 144.427C400.194 144.242 400.194 144.056 400.194 143.866C400.644 144.166 401.113 144.435 401.598 144.674C403.953 145.881 406.657 146.23 409.243 145.659L407.22 143.41C406.735 142.873 406.229 142.292 406.124 141.581C406.019 140.871 406.31 140.237 406.561 139.603C408.482 134.759 408.584 128.667 404.882 124.969C401.755 121.86 400.995 117.847 397.601 115.009C395.121 112.93 393.758 109.882 392.472 106.935C391.384 104.444 390.288 101.933 389.665 99.2926C389.179 97.2296 388.985 95.094 388.318 93.0795C387.65 91.065 386.4 89.107 384.446 88.2067C383.751 87.8878 382.978 87.7061 382.343 87.2822C381.51 86.7211 381.008 85.8087 380.405 85.0094C377.343 80.9723 367.089 83.3501 362.235 84.9892C360.915 85.4019 359.693 86.0776 358.643 86.9754L358.687 86.9028C358.724 86.8422 358.768 86.7816 358.809 86.7211C358.277 87.1499 357.818 87.661 357.449 88.235C356.742 89.3533 356.446 90.6573 355.856 91.8684C355.144 93.3016 351.184 97.3023 352.887 98.9131C353.006 99.0213 353.143 99.1086 353.291 99.1715C353.93 99.437 354.634 99.5073 355.314 99.3734L355.241 99.5469C354.659 100.968 354.361 102.489 354.363 104.024C354.363 110.657 359.844 116.034 366.612 116.034C367.884 116.036 369.149 115.841 370.361 115.457C370.39 115.611 370.414 115.764 370.442 115.917C370.442 115.978 370.463 116.039 370.471 116.099L370.256 116.398C370.245 116.379 370.233 116.362 370.22 116.345L363.869 125.203C362.898 125.885 357.308 129.922 356.992 132.95C356.661 136.264 356.329 140.144 356.329 140.144L356.284 140.976C356.007 141.207 355.682 141.376 355.333 141.47C354.984 141.564 354.618 141.581 354.262 141.521C352.28 141.198 352.28 148.787 352.28 148.787C352.28 148.787 350.961 149.999 350.055 148.949C349.149 147.899 346.754 151.456 346.754 151.456L331.747 152.102L331.403 152.122L330.594 149.623C330.507 149.36 330.319 149.141 330.072 149.015C329.824 148.888 329.536 148.865 329.271 148.949C329.209 148.97 329.148 148.995 329.089 149.026L329.033 149.058L328.927 149.131L328.875 149.179C328.846 149.205 328.819 149.234 328.794 149.264L328.745 149.32L328.721 149.345C328.628 149.473 328.566 149.622 328.541 149.779C328.515 149.937 328.527 150.097 328.576 150.249L329.271 152.393C326.375 152.974 323.414 154.613 325.829 159.126L313.588 156.87L317.549 160.188L337.992 164.399C337.721 164.883 337.899 165.586 338.745 166.575C342.385 170.842 349.019 172.001 351.689 172.3C352.394 173.874 353.275 175.363 354.314 176.74L354.084 180.991C354.084 180.991 347.325 213.393 346.087 215.036C346.712 214.33 347.284 213.578 347.798 212.788C345.836 219.445 343.093 228.557 342.373 229.921C341.216 232.101 340.144 240.922 341.463 241.487C341.868 241.661 343.025 241.576 344.675 241.451V242.182L344.602 269.872C344.602 269.872 344.934 286.856 344.024 288.475C343.114 290.094 342.871 293.489 342.871 293.489C342.871 293.489 339.23 300.187 336.346 302.88C336.326 302.9 336.305 302.919 336.281 302.936L336.192 302.306C336.192 302.306 332.726 306.674 325.056 306.428C325.056 306.428 320.441 309.424 327.285 309.585C334.129 309.747 342.871 309.343 342.871 309.343C342.871 309.343 348.975 300.058 354.088 301.269V308.305H355.653V301.156C356.379 300.679 357.001 300.06 357.48 299.336C357.959 298.612 358.286 297.799 358.44 296.945C358.574 296.065 358.476 295.166 358.156 294.335C357.835 293.505 357.303 292.772 356.612 292.21C356.302 291.929 356.053 291.588 355.881 291.208C355.709 290.827 355.618 290.415 355.613 289.997L355.556 290.046C355.556 289.904 355.52 289.759 355.504 289.61C355.055 285.976 354.492 278.479 356.479 272.932C359.201 265.326 360.026 254.733 358.044 248.427C357.405 246.411 356.879 244.361 356.471 242.287C356.422 242.024 356.377 241.774 356.337 241.54C357.692 241.723 359.034 241.992 360.354 242.347C364.945 243.611 374.989 243.845 383.565 243.776C383.585 244.011 383.609 244.257 383.637 244.503C383.79 246.215 384.11 247.908 384.592 249.558C385.668 252.787 386.162 267.026 386.162 267.026C386.162 267.026 387.549 278.734 386.793 283.497C386.388 286.146 385.984 288.806 385.753 291.479V291.531C385.753 291.531 383.48 297.991 381.817 301.499C381.777 301.588 381.732 301.676 381.692 301.761C381.248 301.802 380.812 301.898 380.393 302.048C380.393 302.048 378.164 306.489 375.944 307.223C373.723 307.958 374.459 310.376 379.487 309.488C384.515 308.6 392.108 307.873 392.108 307.873L392.436 303.344L393.981 301.414L393.576 305.932L395.223 305.609L395.004 300.114L397.532 296.957C397.532 296.957 400.586 294.244 396.048 288.907V289.024C395.999 288.948 395.955 288.867 395.902 288.79V288.766C395.15 287.603 394.551 285.435 395.647 281.588C397.629 274.636 398.782 268.326 398.782 268.326C398.782 268.326 403.208 251.423 397.888 243.425H398.123C397.578 242.3 397.193 241.104 396.978 239.873C396.951 239.727 396.927 239.578 396.905 239.424C400.841 239.198 404.704 238.488 407.855 236.954C407.843 236.938 405.946 196.825 404.377 190.438ZM354.408 162.461V162.542L353.598 162.582L354.408 162.461ZM351.633 162.845C351.5 162.874 351.375 162.933 351.269 163.018C350.921 163.509 350.702 164.08 350.633 164.677L349.371 164.395C349.371 164.395 348.485 164.205 347.211 163.991L346.609 163.386C348.267 163.248 349.99 163.047 351.633 162.845Z" fill="url(#paint1_linear_124_237)"/>
<path d="M393.39 300.17L392.909 305.891L394.523 305.568L394.28 299.363L393.39 300.17Z" fill="#1D2366"/>
<path d="M356.568 273.009C354.622 278.54 355.172 286.004 355.609 289.63C355.771 290.97 355.92 291.785 355.92 291.785C355.92 291.785 353.012 298.398 352.769 298.649C352.527 298.899 344.21 303.965 344.21 303.965L338.397 307.353C338.397 307.353 332.499 304.773 335.327 303.885C335.905 303.653 336.425 303.299 336.852 302.847C339.683 300.162 343.239 293.489 343.239 293.489C343.239 293.489 343.482 290.102 344.372 288.491C345.262 286.88 344.938 269.953 344.938 269.953L345.007 242.359V238.762L356.07 238.843C356.14 240.064 356.299 241.279 356.547 242.476C356.944 244.544 357.459 246.587 358.089 248.597C360.038 254.89 359.229 265.431 356.568 273.009Z" fill="#FFB0B1"/>
<path opacity="0.1" d="M355.92 291.785C355.92 291.785 353.012 298.398 352.769 298.648C352.527 298.899 344.21 303.965 344.21 303.965L338.397 307.352C338.397 307.352 332.499 304.773 335.327 303.885C335.905 303.653 336.425 303.299 336.852 302.847L337.103 304.611L339.04 304.531L355.625 289.638C355.771 290.97 355.92 291.785 355.92 291.785Z" fill="black"/>
<path d="M355.718 290.013L339.04 305.007L337.102 305.088L336.698 302.262C336.698 302.262 333.308 306.614 325.776 306.372C325.776 306.372 321.254 309.355 327.956 309.516C334.659 309.678 343.219 309.274 343.219 309.274C343.219 309.274 349.197 299.989 354.201 301.2V308.212H355.738V301.135C356.453 300.655 357.063 300.036 357.531 299.314C358 298.593 358.317 297.784 358.465 296.937C358.598 296.064 358.504 295.172 358.191 294.346C357.879 293.52 357.359 292.789 356.681 292.221C356.378 291.938 356.136 291.596 355.971 291.217C355.805 290.837 355.719 290.427 355.718 290.013Z" fill="#1D2366"/>
<path d="M394.927 281.632C393.851 285.467 394.438 287.627 395.174 288.786V288.81C396.118 290.241 396.775 291.841 397.107 293.521L397.172 293.885L389.584 304.926L385.466 306.541C385.466 306.541 378.844 304.284 380.053 303.638C380.357 303.481 380.83 302.641 381.372 301.482C382.99 297.99 385.223 291.547 385.223 291.547V291.495C385.458 288.834 385.83 286.182 386.242 283.542C386.983 278.79 385.623 267.127 385.623 267.127C385.623 267.127 385.138 252.944 384.086 249.719C383.611 248.079 383.296 246.397 383.144 244.697C382.925 242.678 382.877 241.015 382.877 241.015C382.877 241.015 387.237 234.959 395.231 241.499C395.87 242.021 396.432 242.63 396.901 243.308C402.423 251.148 397.977 268.419 397.977 268.419C397.977 268.419 396.865 274.7 394.927 281.632Z" fill="#FFB0B1"/>
<path opacity="0.1" d="M397.184 293.885L389.596 304.926L385.478 306.541C385.478 306.541 378.856 304.284 380.066 303.638C380.369 303.481 380.842 302.641 381.384 301.483C384.188 301.458 385.64 304.123 385.64 304.123L389.191 303.558C389.191 303.558 393.876 294.369 394.927 293.808C395.979 293.247 395.089 289.613 395.089 289.613V288.689C395.117 288.721 395.142 288.758 395.174 288.79V288.814C396.118 290.245 396.775 291.845 397.108 293.525L397.184 293.885Z" fill="black"/>
<path d="M385.883 304.361C385.883 304.361 383.86 300.655 379.985 302.024C379.985 302.024 377.804 306.464 375.624 307.183C373.444 307.902 374.172 310.324 379.099 309.44C384.026 308.556 391.453 307.825 391.453 307.825L391.776 303.307L396.784 296.941C396.784 296.941 399.769 294.24 395.328 288.923V289.848C395.328 289.848 396.218 293.481 395.166 294.042C394.114 294.603 389.446 303.796 389.446 303.796L385.883 304.361Z" fill="#1D2366"/>
<path opacity="0.1" d="M356.082 238.835C356.152 240.056 356.312 241.27 356.56 242.468C352.005 241.802 347.778 242.133 345.007 242.351V238.754L356.082 238.835Z" fill="black"/>
<path opacity="0.1" d="M397.35 244.313C397.35 244.313 390.878 244.628 383.16 244.693C382.942 242.674 382.893 241.011 382.893 241.011C382.893 241.011 387.254 234.955 395.247 241.495C395.886 242.017 396.448 242.626 396.917 243.304C397.043 243.648 397.187 243.985 397.35 244.313Z" fill="black"/>
<path d="M397.35 243.586C397.35 243.586 369.002 244.955 360.362 242.537C351.721 240.119 343.158 242.214 341.868 241.653C340.577 241.092 341.625 232.303 342.758 230.127C343.89 227.951 350.103 205.945 350.103 205.945L356.082 174.835L362.38 173.103L362.825 172.978L373.8 169.958L381.841 167.741C381.841 167.741 397.832 230.046 396.46 234.64C395.962 236.399 395.882 238.25 396.226 240.046C396.435 241.272 396.814 242.464 397.35 243.586Z" fill="#1D2366"/>
<path d="M335.242 153.559C335.242 153.559 329.579 159.615 333.867 162.99C338.155 166.365 340.974 163.313 340.974 163.313L335.242 153.559Z" fill="#C7DAF5"/>
<path opacity="0.1" d="M335.242 153.559C335.242 153.559 329.579 159.615 333.867 162.99C338.155 166.365 340.974 163.313 340.974 163.313L335.242 153.559Z" fill="black"/>
<path d="M380.996 113.745C380.996 113.745 380.333 114.375 379.333 115.304C377.91 116.632 375.802 118.574 373.933 120.201C371.344 122.449 369.209 124.1 369.973 122.691C370.738 121.282 370.592 118.828 370.212 116.531C370.183 116.377 370.159 116.224 370.131 116.075C369.816 114.388 369.399 112.721 368.881 111.085C368.881 111.085 373.064 105.691 375.377 103.564C376.239 102.756 376.842 102.425 376.878 102.986C376.919 103.741 377.485 105.409 378.189 107.177C378.209 107.233 378.229 107.286 378.253 107.342C378.723 108.553 379.253 109.797 379.718 110.871C380.43 112.518 380.996 113.745 380.996 113.745Z" fill="#FFB0B1"/>
<path opacity="0.1" d="M378.253 107.343C377.86 109.452 376.907 111.418 375.492 113.035C374.077 114.651 372.254 115.858 370.212 116.531C369.89 114.688 369.445 112.869 368.881 111.085C368.881 111.085 376.757 100.932 376.878 102.986C376.906 103.766 377.521 105.494 378.253 107.343Z" fill="black"/>
<path opacity="0.1" d="M369.427 119.244L370.446 117.811C370.446 117.811 371.122 121.921 373.606 120.108C376.089 118.295 376.211 133.749 376.211 133.749L373.545 173.527L354.282 172.376L354.828 153.156L357.009 143.467L362.401 129.381L365.609 124.726L369.427 119.244Z" fill="black"/>
<path d="M376.211 133.995L373.784 169.962L373.529 173.773L362.789 173.131L362.385 173.107L354.294 172.622L354.841 153.398L357.021 143.709L362.413 129.623L365.621 124.968L369.439 119.466L370.459 118.037C370.459 118.037 371.134 122.146 373.618 120.334L373.67 120.297C376.098 118.763 376.211 133.995 376.211 133.995Z" fill="#1D2366"/>
<path d="M357.292 140.342C357.292 140.342 356.325 142.36 354.384 142.033C352.442 141.706 352.446 149.3 352.446 149.3C352.446 149.3 351.156 150.511 350.266 149.462C349.376 148.412 347.03 151.961 347.03 151.961L332.33 152.607C332.33 152.607 338.871 155.59 337.588 164.617C337.588 164.617 359.796 163.244 360.524 161.149C361.252 159.054 357.292 140.342 357.292 140.342Z" fill="white"/>
<path opacity="0.03" d="M357.292 140.342C357.292 140.342 356.325 142.36 354.384 142.033C352.442 141.706 352.446 149.3 352.446 149.3C352.446 149.3 351.156 150.511 350.266 149.462C349.376 148.412 347.03 151.961 347.03 151.961L332.33 152.607C332.33 152.607 338.871 155.59 337.588 164.617C337.588 164.617 359.796 163.244 360.524 161.149C361.252 159.054 357.292 140.342 357.292 140.342Z" fill="black"/>
<path d="M314.571 157.35L318.447 160.652L350.346 167.342L346.39 163.313L314.571 157.35Z" fill="white"/>
<path d="M369.488 120.515C368.958 121.323 367.441 125.457 366.175 129.066C365.119 132.074 364.237 134.718 364.237 134.718C364.237 134.718 362.178 148.097 361.126 150.515C360.075 152.933 360.645 162.364 360.645 162.364L356.725 185.654C356.725 185.654 354.949 197.664 352.207 204.838C349.501 211.899 346.487 215.21 346.394 215.315C347.608 213.676 354.221 181.403 354.221 181.403L356.406 140.701C356.406 140.701 356.725 136.833 357.049 133.527C357.372 130.221 363.925 125.707 363.925 125.707L370.244 116.741C370.879 117.589 370.454 119.066 369.488 120.515Z" fill="white"/>
<path d="M353.012 172.824C353.012 172.824 343.708 172.42 339.202 167.019C334.696 161.617 349.618 164.863 349.618 164.863L353.497 165.751L353.012 172.824Z" fill="#FFB0B1"/>
<path opacity="0.1" d="M396.46 234.644C395.962 236.404 395.882 238.254 396.226 240.05C386.077 240.769 375.22 238.032 375.22 238.032C373.197 239.889 367.87 242.626 367.87 242.626L364.965 206.696C363.108 201.851 362.38 176.47 362.38 176.47C362.38 176.47 362.546 175.142 362.785 173.151C362.785 173.103 362.785 173.05 362.805 173.002C363.529 167.443 364.965 157.007 365.669 155.598C366.64 153.66 362.684 148.505 362.684 148.505L364.484 133.184L364.702 131.335C368.497 129.643 371.405 124.242 371.405 124.242L373.638 120.338C376.065 118.784 376.19 134.016 376.19 134.016L373.763 169.982L381.805 167.766C381.805 167.766 397.832 230.05 396.46 234.644Z" fill="black"/>
<path d="M406.876 237.127C395.813 242.61 375.705 237.531 375.705 237.531C373.682 239.388 368.355 242.125 368.355 242.125L365.447 206.195C363.594 201.35 362.866 175.969 362.866 175.969C362.866 175.969 365.204 157.031 366.175 155.097C366.458 154.532 366.32 153.692 365.985 152.788C364.334 148.484 363.727 143.851 364.213 139.268L364.989 132.683L365.204 130.838C369.002 129.143 371.911 123.741 371.911 123.741L373.933 120.205L377.655 113.689L379.418 110.604L379.718 110.875L382.003 112.942C382.003 112.942 382.974 113.749 384.43 114.961C387.597 117.625 393.071 122.316 395.894 125.186C398.378 127.714 399.162 137.544 399.389 144.944C399.539 149.817 399.45 153.636 399.45 153.636C396.946 157.75 403.495 190.777 403.495 190.777C405.02 197.16 406.876 237.127 406.876 237.127Z" fill="white"/>
<path opacity="0.03" d="M385.64 123.66C385.64 123.66 378.047 138.085 378.929 143.567C379.811 149.05 382.319 155.255 381.109 156.704C380.694 157.253 380.156 157.699 379.54 158.006C378.923 158.314 378.243 158.475 377.553 158.476C376.34 158.557 373.104 160.814 373.104 161.056C373.104 161.298 370.115 161.298 367.441 162.429C364.767 163.559 360.819 164.201 360.819 164.201C360.819 164.201 353.133 163.959 352.417 164.686C351.701 165.412 350.965 169.76 352.498 173.228C354.031 176.696 355.734 179.284 357.021 179.756C358.307 180.228 366.47 177.499 373.092 176.853C379.714 176.207 386.902 170.971 386.902 170.971C386.902 170.971 394.818 168.145 396.205 163.394C397.593 158.642 394.511 132.526 394.511 132.526C394.511 132.526 392.181 120.354 385.64 123.66Z" fill="black"/>
<path opacity="0.03" d="M384.669 122.449C384.669 122.449 377.076 136.878 377.966 142.356C378.856 147.835 381.356 154.044 380.142 155.497C379.728 156.047 379.192 156.493 378.576 156.801C377.959 157.108 377.28 157.269 376.591 157.269C375.377 157.35 372.141 159.607 372.141 159.849C372.141 160.091 369.152 160.091 366.478 161.218C363.804 162.344 359.856 162.99 359.856 162.99C359.856 162.99 352.171 162.748 351.459 163.474C350.747 164.201 350.002 168.553 351.54 172.017C353.077 175.481 354.776 178.073 356.062 178.545C357.348 179.017 365.511 176.288 372.133 175.646C378.755 175.004 385.943 169.76 385.943 169.76C385.943 169.76 393.855 166.934 395.227 162.187C396.598 157.439 393.532 131.315 393.532 131.315C393.532 131.315 391.21 119.147 384.669 122.449Z" fill="black"/>
<path d="M385.401 122.934C385.401 122.934 377.808 137.362 378.698 142.841C379.588 148.319 382.088 154.528 380.879 155.977C380.465 156.528 379.928 156.976 379.311 157.284C378.694 157.592 378.013 157.753 377.323 157.754C376.109 157.834 372.873 160.091 372.873 160.329C372.873 160.568 369.888 160.572 367.21 161.702C364.532 162.832 360.588 163.474 360.588 163.474C360.588 163.474 352.903 163.232 352.187 163.959C351.471 164.685 350.735 169.037 352.268 172.501C353.801 175.965 355.504 178.557 356.79 179.029C358.076 179.502 366.239 176.772 372.861 176.127C379.483 175.481 386.671 170.244 386.671 170.244C386.671 170.244 394.588 167.418 395.975 162.667C397.362 157.915 394.3 131.799 394.3 131.799C394.3 131.799 391.938 119.647 385.401 122.934Z" fill="white"/>
<path opacity="0.1" d="M385.235 161.633C385.235 161.633 379.168 160.422 381.279 162.441C383.391 164.459 383.379 166.227 385.963 166.147C388.548 166.066 385.235 161.633 385.235 161.633Z" fill="black"/>
<path opacity="0.1" d="M395.49 205.064C395.49 205.064 392.747 206.917 397.994 211.189C403.24 215.46 395.49 205.064 395.49 205.064Z" fill="black"/>
<path opacity="0.1" d="M390.255 220.296C390.255 220.539 389.285 229.178 392.917 231.338C396.55 233.498 390.255 220.296 390.255 220.296Z" fill="black"/>
<path d="M332.58 152.586C329.652 152.687 323.325 153.579 326.606 159.687C329.506 165.093 334.38 161.48 337.123 158.739C336.454 156.183 334.828 153.981 332.58 152.586Z" fill="#FFB0B1"/>
<path d="M337.159 158.69L337.281 158.565L337.159 158.69Z" fill="#FFB0B1"/>
<path opacity="0.1" d="M384.431 115.207C381.324 117.326 378.719 119.115 378.209 119.486C376.818 120.515 374.164 126.559 372.453 129.643C371.09 132.126 366.66 132.764 364.99 132.921L365.204 131.076C369.003 129.381 371.911 123.979 371.911 123.979L379.419 110.843L382.003 113.188C382.003 113.188 382.974 113.996 384.431 115.207Z" fill="black"/>
<path d="M384.431 114.964C381.324 117.084 378.719 118.872 378.209 119.248C376.818 120.273 374.164 126.317 372.453 129.401C371.09 131.884 366.66 132.522 364.99 132.679L365.204 130.834C369.003 129.139 371.911 123.737 371.911 123.737L379.419 110.6L382.003 112.938C382.003 112.938 382.974 113.737 384.431 114.964Z" fill="#DCE7FF"/>
<path d="M378.452 104.678C378.453 107.101 377.717 109.468 376.34 111.464C374.714 113.825 372.294 115.525 369.519 116.257C366.744 116.989 363.799 116.703 361.217 115.453C358.635 114.203 356.587 112.07 355.446 109.442C354.304 106.814 354.145 103.865 354.996 101.129C355.847 98.3936 357.652 96.0533 360.085 94.5327C362.517 93.0121 365.415 92.412 368.252 92.8414C371.09 93.2707 373.679 94.701 375.551 96.8727C377.422 99.0444 378.451 101.814 378.452 104.678Z" fill="#FFB0B1"/>
<path opacity="0.1" d="M399.389 144.948C397.746 143.94 396.408 142.505 395.518 140.798C394.842 139.466 394.393 137.928 393.24 136.983C392.201 136.135 390.813 135.929 389.519 135.55C385.263 134.294 381.696 130.419 381.562 125.994C381.497 123.911 382.149 121.832 381.853 119.769C381.686 118.601 381.22 117.496 380.502 116.559C380.146 116.111 379.755 115.691 379.333 115.304C378.767 114.771 378.172 114.254 377.655 113.689C377.328 113.339 377.043 112.953 376.805 112.538C376.613 112.199 376.457 111.84 376.34 111.468C375.531 108.998 376.267 106.067 375.377 103.568L375.329 103.431C374.993 102.542 374.309 101.654 373.359 101.586C372.408 101.517 371.595 102.304 370.689 102.655C368.792 103.39 366.745 102.139 365.163 100.863C363.582 99.5873 361.798 98.1299 359.787 98.4125C358.457 98.6022 357.405 99.5065 356.179 99.9749C355.902 100.082 355.617 100.164 355.326 100.221C356.363 97.6394 358.269 95.4989 360.716 94.1671C363.162 92.8354 365.997 92.3957 368.734 92.9236C371.47 93.4514 373.937 94.9139 375.71 97.0597C377.484 99.2054 378.453 101.901 378.452 104.682C378.453 105.522 378.365 106.36 378.189 107.181C378.209 107.238 378.229 107.29 378.253 107.347C378.723 108.558 379.252 109.801 379.718 110.875L382.003 112.942C382.003 112.942 382.974 113.749 384.43 114.961C387.597 117.625 393.07 122.316 395.894 125.187C398.378 127.722 399.154 137.548 399.389 144.948Z" fill="black"/>
<path d="M356.038 92.5989C356.616 91.4241 356.904 90.108 357.595 88.9938C358.611 87.3789 360.382 86.3454 362.203 85.7197C366.956 84.0847 377 81.7108 380.001 85.7197C380.592 86.5271 381.081 87.4233 381.898 87.9805C382.521 88.4044 383.274 88.586 383.957 88.905C385.871 89.8012 387.092 91.7552 387.743 93.7495C388.395 95.7438 388.589 97.8835 389.066 99.9384C389.677 102.575 390.749 105.074 391.817 107.556C393.075 110.487 394.41 113.527 396.837 115.598C400.15 118.424 400.882 122.425 403.956 125.526C407.597 129.207 407.479 135.283 405.603 140.108C405.356 140.741 405.077 141.403 405.174 142.078C405.271 142.752 405.772 143.365 406.246 143.902L408.236 146.143C403.527 147.277 398.2 144.823 396.008 140.515C395.332 139.183 394.883 137.649 393.726 136.7C392.691 135.852 391.299 135.651 390.009 135.271C385.753 134.011 382.185 130.132 382.052 125.707C381.987 123.628 382.638 121.549 382.343 119.49C382.179 118.315 381.712 117.202 380.988 116.26C379.876 114.811 378.197 113.838 377.291 112.223C375.758 109.522 376.923 106.014 375.818 103.116C375.479 102.227 374.799 101.339 373.848 101.271C372.898 101.202 372.085 101.989 371.175 102.34C369.282 103.075 367.235 101.828 365.653 100.548C364.071 99.2682 362.288 97.8148 360.273 98.1015C358.942 98.2872 357.895 99.1915 356.669 99.6638C355.763 100.011 353.926 100.322 353.134 99.5589C351.459 98.0207 355.338 94.0361 356.038 92.5989Z" fill="#591D4B"/>
<path opacity="0.1" d="M397.132 139.183C396.452 137.851 396.007 136.317 394.85 135.372C393.815 134.524 392.423 134.318 391.129 133.939C386.878 132.683 383.31 128.804 383.172 124.379C383.108 122.3 383.759 120.217 383.468 118.158C383.298 116.99 382.832 115.885 382.112 114.948C380.996 113.499 379.317 112.526 378.415 110.911C376.882 108.214 378.047 104.706 376.939 101.804C376.603 100.919 375.919 100.031 374.973 99.9586C374.026 99.8859 373.205 100.681 372.299 101.032C370.406 101.767 368.355 100.516 366.777 99.24C365.2 97.9643 363.408 96.5069 361.397 96.7895C360.067 96.9792 359.015 97.8835 357.793 98.3518C356.887 98.699 355.047 99.0139 354.254 98.2509C352.587 96.6361 356.466 92.6595 357.162 91.2304C357.741 90.0516 358.028 88.7395 358.724 87.6253C358.76 87.5647 358.801 87.5042 358.841 87.4436C358.321 87.8739 357.871 88.3834 357.51 88.9535C356.818 90.0677 356.531 91.3757 355.953 92.5586C355.253 93.9877 351.374 97.9764 353.044 99.5791C353.853 100.346 355.674 100.031 356.58 99.6841C357.793 99.2117 358.853 98.3074 360.184 98.1217C362.206 97.8351 363.986 99.2925 365.564 100.568C367.142 101.844 369.205 103.095 371.09 102.361C371.996 102.009 372.788 101.218 373.759 101.291C374.73 101.364 375.377 102.248 375.729 103.136C376.834 106.034 375.669 109.543 377.202 112.244C378.108 113.83 379.787 114.823 380.899 116.281C381.623 117.222 382.09 118.335 382.254 119.51C382.549 121.569 381.898 123.648 381.963 125.727C382.096 130.168 385.664 134.032 389.919 135.291C391.202 135.671 392.601 135.873 393.637 136.72C394.798 137.669 395.255 139.203 395.918 140.535C398.111 144.843 403.438 147.298 408.147 146.163L407.208 145.105C403.127 145.166 398.997 142.849 397.132 139.183Z" fill="black"/>
<path opacity="0.1" d="M369.245 120.758C368.715 121.565 367.198 125.699 365.932 129.308C364.747 128.848 363.671 125.913 363.671 125.913L369.989 116.943C370.637 117.831 370.212 119.304 369.245 120.758Z" fill="black"/>
<path d="M369.488 120.516C368.958 121.323 367.441 125.457 366.175 129.066C364.99 128.61 363.914 125.671 363.914 125.671L370.232 116.705C370.879 117.589 370.454 119.066 369.488 120.516Z" fill="#DCE7FF"/>
<path d="M332.75 161.759L329.247 150.733C329.206 150.604 329.19 150.468 329.201 150.333C329.213 150.198 329.251 150.066 329.313 149.946C329.375 149.826 329.461 149.719 329.565 149.631C329.669 149.544 329.789 149.478 329.919 149.437C330.179 149.356 330.462 149.381 330.704 149.506C330.946 149.632 331.129 149.848 331.213 150.108L334.716 161.121L334.368 163.426L332.75 161.759Z" fill="#BE8B87"/>
<path opacity="0.1" d="M329.579 149.764C329.84 149.682 330.123 149.706 330.367 149.832C330.61 149.957 330.794 150.174 330.877 150.434L334.38 161.448L334.117 163.176L334.372 163.442L334.72 161.137L331.197 150.124C331.113 149.864 330.93 149.648 330.688 149.523C330.445 149.397 330.163 149.372 329.902 149.453C329.683 149.524 329.494 149.667 329.364 149.857C329.433 149.82 329.505 149.789 329.579 149.764Z" fill="white"/>
<path d="M332.75 161.758L334.716 161.137L334.429 163.026L334.368 163.442L333.794 162.844L332.75 161.758Z" fill="#EFC8C4"/>
<path d="M333.794 162.845C333.828 162.801 333.871 162.766 333.919 162.74C333.948 162.722 333.981 162.712 334.014 162.712C334.048 162.712 334.081 162.722 334.109 162.74C334.137 162.773 334.16 162.809 334.178 162.849C334.205 162.893 334.241 162.931 334.285 162.96C334.328 162.988 334.377 163.007 334.429 163.014L334.368 163.418L333.794 162.845Z" fill="#727A9C"/>
<path d="M329.227 154.649C329.227 154.649 336.253 154.609 334.599 157.592C332.944 160.576 330.36 160.935 330.36 160.935L329.227 154.649Z" fill="#FFB0B1"/>
<path d="M140 134.461C140 135.895 139.093 136.994 138.28 137.691C137.971 137.956 137.219 138.258 137.412 137.901C137.631 137.496 137.555 136.707 137.353 137.12C137.021 137.799 136.591 138.549 136.039 139.307C135.771 139.676 135.229 139.676 134.961 139.307C134.409 138.549 133.978 137.798 133.646 137.118C133.444 136.705 133.369 137.495 133.587 137.899C133.78 138.257 133.028 137.954 132.72 137.689C131.908 136.992 131.003 135.894 131 134.461C131 133.287 131.678 132.194 133.374 132.018C134.119 131.936 134.906 132.131 135.5 132.602C135.61 132.689 135.713 132.786 135.808 132.893C136.195 133.327 136.579 133.592 136.383 133.045C136.263 132.71 136.28 132.079 136.633 132.037C136.985 131.996 137.358 131.989 137.626 132.018C139.322 132.194 140 133.287 140 134.461Z" fill="url(#paint2_linear_124_237)"/>
</g>
<defs>
<linearGradient id="paint0_linear_124_237" x1="144.139" y1="312.823" x2="144.139" y2="64.4038" gradientUnits="userSpaceOnUse">
<stop stop-color="#808080" stop-opacity="0.25"/>
<stop offset="0.54" stop-color="#808080" stop-opacity="0.12"/>
<stop offset="1" stop-color="#808080" stop-opacity="0.1"/>
</linearGradient>
<linearGradient id="paint1_linear_124_237" x1="90292.9" y1="187435" x2="90292.9" y2="59919.8" gradientUnits="userSpaceOnUse">
<stop stop-color="#808080" stop-opacity="0.25"/>
<stop offset="0.54" stop-color="#808080" stop-opacity="0.12"/>
<stop offset="1" stop-color="#808080" stop-opacity="0.1"/>
</linearGradient>
<linearGradient id="paint2_linear_124_237" x1="139.055" y1="122.517" x2="135.245" y2="139.944" gradientUnits="userSpaceOnUse">
<stop stop-color="#ED1379"/>
<stop offset="1" stop-color="#7200FF"/>
</linearGradient>
<clipPath id="clip0_124_237">
<rect width="447" height="316" fill="white"/>
</clipPath>
</defs>
</svg>
