<svg width="1073" height="480" viewBox="0 0 1073 480" fill="none" xmlns="http://www.w3.org/2000/svg">
<path opacity="0.02" d="M142.421 -183.46C187.551 -228.649 241.136 -264.497 300.112 -288.954C359.089 -313.412 422.302 -326 486.141 -326C549.98 -326 613.194 -313.412 672.171 -288.954C731.147 -264.497 784.732 -228.649 829.862 -183.46L923.524 -89.7198L1017.19 -183.46C1108.35 -274.696 1231.99 -325.953 1360.91 -325.953C1489.83 -325.953 1613.47 -274.696 1704.63 -183.46C1795.79 -92.2231 1847 31.5203 1847 160.548C1847 289.577 1795.79 413.32 1704.63 504.557L1610.96 598.297L923.524 1286.31L236.083 598.297L142.421 504.557C97.2694 459.388 61.452 405.759 37.015 346.733C12.5779 287.707 0 224.441 0 160.548C0 96.6559 12.5779 33.3895 37.015 -25.6366C61.452 -84.6626 97.2694 -138.292 142.421 -183.46Z" fill="#7200FF"/>
<path opacity="0.02" d="M458.5 -70.4099C490.347 -102.258 528.16 -127.522 569.778 -144.759C611.396 -161.996 656.004 -170.868 701.053 -170.868C746.103 -170.868 790.711 -161.996 832.329 -144.759C873.947 -127.522 911.76 -102.258 943.607 -70.4099L1009.7 -4.34479L1075.8 -70.4099C1140.12 -134.711 1227.37 -170.835 1318.35 -170.835C1409.32 -170.835 1496.57 -134.711 1560.9 -70.4099C1625.23 -6.10909 1661.37 81.1015 1661.37 172.037C1661.37 262.972 1625.23 350.182 1560.9 414.483L1494.81 480.548L1009.7 965.442L524.594 480.548L458.5 414.483C426.638 382.65 401.362 344.854 384.118 303.254C366.873 261.654 357.997 217.066 357.997 172.037C357.997 127.007 366.873 82.4189 384.118 40.8191C401.362 -0.780655 426.638 -38.5768 458.5 -70.4099Z" fill="#7200FF"/>
<path opacity="0.02" d="M717.474 34.5384C737.69 14.3964 761.693 -1.58162 788.112 -12.4829C814.531 -23.3842 842.848 -28.9951 871.445 -28.9951C900.042 -28.9951 928.358 -23.3842 954.777 -12.4829C981.196 -1.58162 1005.2 14.3964 1025.42 34.5384L1067.37 76.3206L1109.33 34.5384C1150.16 -6.12792 1205.55 -28.974 1263.3 -28.974C1321.05 -28.974 1376.43 -6.12792 1417.27 34.5384C1458.11 75.2048 1481.05 130.36 1481.05 187.871C1481.05 245.382 1458.11 300.537 1417.27 341.204L1375.31 382.986L1067.37 689.651L759.43 382.986L717.474 341.204C697.248 321.071 681.203 297.167 670.257 270.858C659.31 244.549 653.676 216.349 653.676 187.871C653.676 159.393 659.31 131.193 670.257 104.884C681.203 78.5747 697.248 54.6709 717.474 34.5384Z" fill="#7200FF"/>
</svg>
