<svg width="16" height="16" viewBox="0 0 16 16" fill="none" xmlns="http://www.w3.org/2000/svg">
<path fill-rule="evenodd" clip-rule="evenodd" d="M2.66699 3.33321C2.30185 3.33321 2.00033 3.63473 2.00033 3.99988V11.9999C2.00033 12.365 2.30185 12.6665 2.66699 12.6665H13.3337C13.6988 12.6665 14.0003 12.365 14.0003 11.9999V3.99988C14.0003 3.63473 13.6988 3.33321 13.3337 3.33321H2.66699ZM0.666992 3.99988C0.666992 2.89835 1.56547 1.99988 2.66699 1.99988H13.3337C14.4352 1.99988 15.3337 2.89835 15.3337 3.99988V11.9999C15.3337 13.1014 14.4352 13.9999 13.3337 13.9999H2.66699C1.56547 13.9999 0.666992 13.1014 0.666992 11.9999V3.99988Z" fill="white"/>
<path fill-rule="evenodd" clip-rule="evenodd" d="M0.787561 3.61767C0.998704 3.31603 1.41439 3.24268 1.71602 3.45382L8.00038 7.85287L14.2847 3.45382C14.5864 3.24268 15.0021 3.31603 15.2132 3.61767C15.4243 3.9193 15.351 4.33499 15.0494 4.54613L8.38269 9.2128C8.15314 9.37348 7.84762 9.37348 7.61807 9.2128L0.951408 4.54613C0.649775 4.33499 0.576418 3.9193 0.787561 3.61767Z" fill="white"/>
</svg>
